<svg xmlns="http://www.w3.org/2000/svg" xml:space="preserve" viewBox="0 0 1200 290"><path fill="#15263d" d="M887 260.3c-.45-.06-.9-.12-2.12-.18-4.49-.05-8.19-.1-12.2-.45a28 28 0 0 0-5.73-.65c-44.84.3-89.68.73-134.52.94q-49.7.22-99.43-.32c0-1.08 0-1.8.4-2.59 1.46-.13 2.53-.18 4.05-.17 3.79.02 7.12-.04 10.68.2 1.77-.16 3.32-.63 5.28-1.2 2.4-.2 4.4-.26 6.64.03a268 268 0 0 0 19.51.9c.47.01.95-1.12 1.85-1.83a27 27 0 0 1 5.87.3c6.1.15 11.9 0 18.15-.23 4.13-.14 7.8-.2 11.73.06a220 220 0 0 0 16.22-1.07c1.47-.03 2.55.01 3.94.34 15.81.58 31.31.62 46.8-.5 2.3-.16 4.7 1.11 7 .96 6-.38 11.98-1.1 17.94-1.9 1.37-.19 2.63-1.22 4.33-1.98 1.46-.06 2.53-.01 3.9.34 1.1.43 1.91.7 2.72.69q21.9-.44 43.78-.99c11.1-.28 22.2-.59 33.3-1.08 1.66-.07 3.27-1.22 5.27-1.98a7 7 0 0 1 2.92.33c8.64.44 17 .63 25.35.63.79 0 1.58-1.2 2.69-1.96a7 7 0 0 1 2-.3c.78.18 1.23.26 1.97.64 1.93.44 3.56.71 5.2.7 16-.08 32.01-.16 48.02-.47 1.15-.02 3.36-2.1 3.21-2.85-.86-4.35-2.27-8.58-3.5-12.85 0 0 .25-.35.6-.54.64-.55.9-.9 1.51-1.13 3.1 1.05 5.88 1.96 8.66 2.87 0 0 .01-.01.05.34 5.26 4.05 10.31 8 15.74 11.35 4.84 2.97 4.89 4.07 2.58 9.42-1.98 4.6-6.11 5.49-9.5 7.8-1.11.78-1.9 2.04-3.1 3.24-.44.51-.62.87-.8 1.23-.06.28-.23.48-1.1.6-4.74 1.96-8.89 3.9-14.24 6.4.66-3.22 1.33-5.34 1.48-7.48.19-2.62-.06-5.27-.32-8.18a12 12 0 0 0-3.12-.73H950.6c-2.8.71-5.22 1.4-7.64 2.1a11 11 0 0 1-2.7.09c-9.85-.47-18.95-.76-28.05-.96-.39-.01-.8.9-1.2 1.39-2.38.1-4.76.19-7.68-.16-2.46-.2-4.4.05-6.32.3-.17.08-.34.16-1.2.26z"/><path fill="#d3731d" d="M833.44 127c-2.83.04-5.22-.06-8.4-.24-6.09-.14-11.4-.28-16.72-.24q-32.16.24-64.32.53l-14-.26a2356 2356 0 0 1-46.03-.78c-.34-.54-.63-.8-.9-1.45.23-1.71.57-3 .67-4.32.44-5.65 3.15-7.65 9.03-7.38 7.71.36 15.49-.5 23.65-.74 1.81-.01 3.22-.13 5.07-.14 17.2.06 33.92-.06 50.66 0 4.62.03 9.23.63 14.17 1.07.77.07 1.22.04 1.99.22 2.76.32 5.2.43 7.96.68.8.1 1.27.06 2.06.28 6.44.63 12.56 1 18.68 1.38 1.39.17 2.78.34 4.91.67 13.53 1.19 26.32 2.21 39.1 3.23.46.1.91.22 2.11.4l22.88 1.8c.75.13 1.5.25 2.95.56 8.48.7 16.26 1.24 24.05 1.77 1.42.28 2.84.56 4.6 1.2.31.75.27 1.15-.17 1.56-1.74.11-3.08.21-4.42.31l-4.09-.24c-6.87.03-12.9.1-18.93.18-18.7-.06-37.4-.12-56.56-.04"/><path fill="#1b2a41" d="M913 197.09s-.34.12-.92.05a542 542 0 0 0-21.2 2.94c-1.04.17-1.94 1.2-2.9 1.84-.17.28-.33.57-1.08 1.02-1.3 1.43-2.93 3.22-2.56 3.9.94 1.65 2.67 3.82 4.28 3.99 9.16.99 18.38 1.45 27.57 2.1 0 0 .41-.02.62.41a30 30 0 0 0 3.26 2.66c.36.34.72.67 1.05 1.7-.07 2.24-.1 3.76-.49 5.33a111 111 0 0 0-6.03 6.32l-1.3-.8c-.1-1.43.11-3-.43-4.23-.33-.72-1.86-.9-3.02-1.65-1.2-1.1-2.18-2.5-3.25-2.57-7.02-.48-14.06-.7-21.1-.84-.44-.01-.91 1.43-1.48 2.42a10 10 0 0 1-2 1.52c-.46.44-.65.78-.85 1.03-.02-.08.15-.06-.15.04-.5.46-.69.82-.82 1.33.06.15-.14.4-.32.48-.25.18-.4.35-.38.38.15.2.33.37.6.8.07.64.05 1 .08 1.66.32.55.58.82.95 1.32.4.64.7 1.04.93 1.82.05 1.89-.2 3.54.33 4.88 1.3 3.27.14 4.4-3 3.91-1.39-.2-2.69-.94-4.02-1.44l1.12-1.32-3.77-4.1c-1.56 3.2-3.14-.08-4.71 0-2.13-7.39 1.86-12.28 7.11-16.97-.81-1.46-1.66-3-2.75-4.77a90 90 0 0 1 4.15-12.3c1.5-1.36 2.5-2.3 3.76-3.46l-3.1-3.8c-.5-4.05-1-8.1-1.34-12.82 1.51-3.34 2.88-6 4.25-8.67.27-.18.55-.37 1.2-.9 1.32-1.27 2.25-2.19 3.18-3.1 8.38-4.85 17.23-5.64 27.16-2.94 3.19 1.44 5.62 4.56 8.37.58 1.08-.35 2.15-.7 3.78-.77 3.1.5 5.63.7 8.16.91a18 18 0 0 1-.82 4.72 32 32 0 0 1-6.19 2.18c-4.5.97-5.55 4.42-4.62 7.93 1.01 3.84.27 6.69-1.92 9.72-.89 1.22-.9 3.08-1.32 4.65-.74.63-1.49 1.25-2.8 1.97-.8.38-1.04.66-1.27.94m-22.92-15.96c-.52 6.36 1 9.17 5.41 10.03 5.9 1.16 11.7-1.96 13.2-7.1 1.7-5.76-1.72-10.33-7.76-10.38-4.94-.03-8.68 1.9-10.85 7.45m-11.67 53.35s.11-.06 0 0"/><path fill="#1b2b41" d="M932.68 191c1.5-7.05 4.21-13.51 9.51-19.03 2.38-1.93 4.61-3.58 7.26-5.5l1.45-.86c7.8-3.29 15.77-3.86 24.5-1.29.89.27 1.22.33 1.56.38.65.39 1.3.78 2.46 1.5 3.16 4.17 5.8 7.98 8.46 11.8.12 1.71.24 3.42-.03 5.8-1.1 3.67-1.8 6.68-2.6 10.05-10.75 0-21.5-.05-32.24.05-1.67.01-3.34.72-5.35 1.15-3.57 4.04-1.04 11.56 3.78 12.46-.02.04.07.06.02.35.22.54.48.8 1.02 1.1.38.18.5.32.69.8 5.17 3.83 10.4 2.49 15.56.64.62-.22.82-1.64 1.22-2.45.02.04-.05-.02.33 0 3.65-1.54 6.82-2.2 9.92.52.41.36 1.5-.04 2.26-.09 0 0 .04.1-.06.6-.02 1.16.07 1.84.14 2.51-.01 0 0 .04-.36-.06a51 51 0 0 0-5.07 4.86c-8.34 6.5-17.73 5.97-27.73 4.07-8.38-3.02-13.9-8.33-16.3-17.43-.22-4.45-.31-8.19-.4-11.93M957 175.1c-4.2 2.64-7.42 5.86-7.05 11.8h4.86l15.95.02c3.08.02 3.48-1.8 3.15-4.3-.96-7.3-7.14-10.31-16.9-7.52"/><path fill="#16253b" d="m957.15 119.96-33.16-2.85-9.84-.51a732 732 0 0 1-30.89-3.08c-2.57-1.17-4.62-2.26-6.76-2.45-9.7-.84-19.43-1.37-29.13-2.17-.84-.07-1.59-1.25-2.16-2 .48-.3.66-.55 1.2-.88 18-.01 35.53.02 53.06-.06 1.86-.01 3.72-.7 5.57-1.08 2.37-.05 4.73-.1 7.58.31 2.17 2.5 3.51 2.6 4.38-.19a54 54 0 0 1 8.67.4c6.4.8 12.27 1.15 18.14 1.37.37.02.78-.88 1.18-1.36 2.79 0 5.58.01 8.76.54a22 22 0 0 0 4.07 1.9l.37-1.5-3.65-.58c.35-.1.7-.2 1.56-.48.58-.54.65-.9.71-1.28-.14-2.42-.29-4.85-.53-7.9a5 5 0 0 0-.3-1.1c-.08-1.82-.16-3.63.13-5.85a3 3 0 0 1 1.93.2l2.99 2.46c1.97 1.04 3.42 1.68 4.87 2.33 0 0 .05-.1.07.24.65.86 1.28 1.38 1.92 1.9l6.9 5.02c1.4.87 2.29 1.4 3.18 1.94 1.13.9 2.26 1.78 3.89 3.04 1.37.56 2.24.76 3.12.96.07.37.29.58 1.08.93a128 128 0 0 1 3.68 2.94 7 7 0 0 1-.4 3.2 28 28 0 0 0-2.32 1.73l-22.19 13.6c-.94.65-1.38 1-1.82 1.36l-.3.1c-1.03.4-1.78.67-2.84.68-.5-2.67-.5-5.1-.92-7.45-.28-1.52-1.18-2.92-1.8-4.38"/><path fill="#1d2c42" d="M784.64 197.9c-.49.45-.98.9-1.89 1.8l-6.9 8.06H789c1.39.07 2.78.14 5.01.22l8.7.01c-.3 3.5-.55 6.26-.98 9.28-.7 1.37-1.22 2.47-2.17 3.46-2.13 0-3.85.1-6.02.07-11.82-.06-23.19 0-34.96-.08a55 55 0 0 0-3.65-.55c-.53-6.66 1-12.18 6.1-16.59 2.03-1.74 3.35-4.3 5.31-6.53 1.1-.75 1.85-1.48 2.83-2.25.5-.2.62-.44.76-.84.17-.07.28-.43.58-.6 1.74-1.9 3.18-3.6 4.89-5.4.7-.73 1.15-1.35 1.83-2.04.55-.26.7-.54.95-1.03.35-.3.43-.49.77-.84 1.87-2.54 3.47-4.9 5.18-7.58-.77-.7-1.62-1.4-2.48-1.43-5.14-.1-10.3.12-15.42-.13-1.78-.1-3.5-1.25-5.33-2.25.04-.78.16-1.23.63-1.76 1.7-4.4 4.76-5.15 8.95-5 8.96.32 17.94.1 26.91.1h5.75l.57 9.94-13.88 15.93zm43.32-22.91c.02.45.05.9-.4 1.77-1.17 2.36-2.2 4.25-2.48 6.25a127 127 0 0 0-1.06 12.22c-.15 3.2-.48 6.55.28 9.57.55 2.18 2.02 5.23 5.67 3.44 1.08.1 2.16.2 3.8.7 5.68 1.9 8.88-1.51 12.04-4.48.94-.88.74-2.97 1.06-4.5-.01-.18-.03-.35.45-.83 1.48-3.84 2.99-7.33 3.31-10.92.52-5.7.24-11.48.3-17.23-.04-.17-.08-.34.27-.9 3.48-4.94 10.27-5.66 15.16-1.96-.03.73-.06 1.47-.48 2.38-.89.23-1.8.22-1.82.32-.57 4.4-1.03 8.8-1.56 13.2-1.15 9.56-2.25 19.1-3.54 28.63-.28 2.1-1.13 5.78-1.92 5.84-2.75.2-5.62-.77-8.37-1.54-1.3-.36-2.44-1.28-3.92-2-.44-.06-.62-.07-1.02-.3-3.25.08-6.1.61-7.02 4.44-.7.06-1.1.03-1.99-.03-3.63-.04-6.8.05-9.95-.08-7.41-.3-13.6-6.74-12.86-13.53 1.33-12.14 2.05-24.34 3.24-36.5.1-1.04 1.68-2.62 2.74-2.76 2.86-.4 5.8-.14 8.42-.14zm17.56 37.43s.05.1 0 0"/><path fill="#172232" d="M845 107c.78.65 1.53 1.83 2.37 1.9 9.7.8 19.43 1.33 29.13 2.17 2.14.19 4.2 1.28 6.35 2.32.07.36.13.58-.23.56-1.78-.05-3.2-.07-4.6-.1-6.07-.62-12.13-1.24-18.85-1.9-.83 0-1 .05-1.16.1l-22.92-2c-1.19-.01-1.64.03-2.1.08-7.74-.68-15.48-1.36-23.56-2.05-.35-.01-.38-.23-.48-.38-.38-.07-.66 0-1.28.14a8 8 0 0 1-2.08.08c-6.14-.72-11.86-1.32-17.66-2.1-.36-.08-.65.01-1.18.18-.41.15-.58.21-1.1.15-1.12-.1-1.88-.07-2.96-.17-.78-.09-1.24-.05-2-.17-.77-.1-1.23-.05-1.97-.16-.73-.12-1.16-.07-2.03-.2a66 66 0 0 0-5.08-.46c1.05-.61 2.08-1.69 3.16-1.74 3.6-.17 7.22.02 11.74.32 2.26.14 3.62.05 4.97-.05l49.31.4a4 4 0 0 0 1.2-.15c1.72.07 3.45.13 5.84.2.83-.06 1-.1 1.16-.15 18.42.27 36.85.54 55.67.93-1.47.5-3.33 1.2-5.19 1.2-17.53.1-35.06.06-53.5.07h-9.78l.02.97zm-13.2-.84-1.84.17.1.63c.7-.13 1.4-.27 1.75-.8"/><path fill="#222e3f" d="M825.18 221.26c-12.04-1.77-15.83-8.68-15.78-17.87 1.4-13.2 2.92-26 4.46-39.02h15.65c-.44 3.44-.85 6.67-1.4 10.26-.65-2.34-1.15-5.04-1.8-8.58-2.61 0-5.56-.25-8.42.14-1.06.14-2.64 1.72-2.74 2.77-1.19 12.15-1.91 24.35-3.24 36.49-.74 6.79 5.45 13.22 12.86 13.53 3.15.13 6.32.04 9.9.29.07.63-.3 1.03-1.11 1.44-3.1.18-5.74.37-8.38.55m-1.1-71.51 1.05-6.86h13.74l-1.72 13.43h-13.77z"/><path fill="#2b3341" d="M845.01 215c1.22.67 2.36 1.6 3.66 1.95 2.75.77 5.62 1.74 8.37 1.54.8-.06 1.64-3.74 1.92-5.84 1.29-9.52 2.4-19.07 3.54-28.62.53-4.4.99-8.81 1.56-13.2.01-.11.93-.1 1.68.01.28.6.32 1.05.28 2.2-.12 1.8-.16 2.88-.2 3.95-1.2 8.64-2.38 17.28-3.55 26.35-.78 5.82-1.58 11.2-2.47 17.19h-12.67c-1.43-.13-2.1-.27-2.75-.73.22-1.8.43-3.3.63-4.8"/><path fill="#16253b" d="M861.2 146.97c-.96 3.3-1.24 7.28-3.3 8.7-2.1 1.43-5.95.34-9.03.35-.48 0-.96-.05-2.2-.13l1.4-12.27c3.08-.24 5.75-.3 8.36-.7 2.99-.46 4.97 0 4.77 4.05"/><path fill="#142131" d="M1007.02 265c.94-1.04 1.73-2.3 2.85-3.07 3.38-2.32 7.51-3.2 9.5-7.8 2.3-5.36 2.25-6.46-2.59-9.43-5.43-3.35-10.48-7.3-15.74-11.34 9.89 5.62 19.82 11.59 30.1 17.77a885 885 0 0 1-22.98 13.82 9 9 0 0 1-1.14.04M960 245.81c2.05.02 4.1.04 6.9.05 8.8-.37 16.83-.74 25.23-1.12l-1.46-8.5c-.2-1.3-.4-2.59-.52-4.15 1.3 4 2.71 8.22 3.57 12.57.15.75-2.06 2.83-3.21 2.85-16 .31-32.02.39-48.03.47-1.63.01-3.26-.26-5-.8.2-.4.46-.5.67-.73 2.01 0 4.03 0 6.88-.02 3.56-.18 6.26-.34 8.97-.5.76.05 1.51.11 3 .15 1.5-.1 2.25-.18 3-.27"/><path fill="#1d2839" d="M803.95 175.63c-.4-2.7-.58-5.71-.8-9.63h-5.75c-8.97 0-17.95.22-26.91-.1-4.19-.15-7.26.6-9 4.6a5.4 5.4 0 0 1 .27-2.9c.18-.98.23-1.72.43-2.88 5.03-.63 9.92-.85 14.82-1.07.75.06 1.5.13 3.03.2 2.17-.08 3.57-.14 4.97-.21 1.06.06 2.13.13 3.98.2 1.84-.07 2.9-.13 3.96-.2 2.72.07 5.44.14 8.6.12 1.58.06 2.71.2 4.55.44-.65 3.78-1.28 7.45-2.15 11.43"/><path fill="#142131" d="M955 196.2c-2.03-.06-4.07-.12-6.54-.42-.45-.42-.45-.6-.46-.78 1.67-.38 3.34-1.09 5.01-1.1 10.75-.1 21.5-.05 32.24-.05.8-3.37 1.5-6.38 2.52-9.63.27 2.54.24 5.32.12 8.7-.35 1.42-.63 2.24-.9 3.05-.75.02-1.5.03-2.62.14-1.12.03-1.88-.04-3.37-.1a66 66 0 0 0-3 .21c-2.05-.07-4.1-.15-7.03-.22z"/><path fill="#172232" d="M991.97 258c.07 2.64.32 5.29.13 7.9-.15 2.15-.82 4.27-1.48 7.5a456 456 0 0 1 14.04-6.4 694 694 0 0 1-17.97 12.24 456 456 0 0 0 4.79-20.35c0-.73.23-.84.5-.9"/><path fill="#222e3f" d="M829.64 208.04c-3.32 2-4.79-1.06-5.34-3.24-.76-3.02-.43-6.37-.28-9.57.18-4.08.48-8.18 1.06-12.22.28-2 1.3-3.9 2.35-5.92-.42 7.26-1.2 14.62-1.96 21.98-.37 3.63.03 6.96 4.17 8.97"/><path fill="#172232" d="M943.35 259.23a30 30 0 0 1 7.55-1.93c3.46.43 6.22.57 9 .7l17.01.76c-11.06.2-22.12.4-33.56.47"/><path fill="#2b3341" d="M850.77 171.33c.1 5.4.38 11.17-.14 16.88-.32 3.6-1.83 7.08-3.18 10.7.8-9.02 1.98-18.12 3.32-27.58"/><path fill="#172232" d="M911.33 259.72c.08-.59.49-1.5.88-1.5 9.1.2 18.2.5 27.75.84.45.06.17.37.07.55-.55.09-.98 0-2.16-.09-3.79.14-6.83.28-9.87.41-.76-.07-1.51-.14-3.08-.2l-11.92.34c-.45-.09-.9-.17-1.67-.35"/><path fill="#0d1b2f" d="M977.36 258.86c-6.12-.36-11.8-.6-17.47-.87a89 89 0 0 1-8.6-.7c11.4-.3 23.09-.3 35.24-.02.47.65.46 1.02.46 1.39-3.06.1-6.12.2-9.63.2"/><path fill="#2b3341" d="M866.54 167.89c-5.07-3.47-11.86-2.75-15.24 1.95-.3-1.6-.3-3.36-.3-5.78 5.05 0 9.57-.13 14.06.16.62.04 1.1 2.23 1.48 3.67"/><path fill="#172232" d="M944.53 105.3c.06.59-.35 1.49-.72 1.47-5.87-.22-11.74-.57-17.7-1.27a226 226 0 0 1 18.42-.2"/><path fill="#222e3f" d="M846.65 200.2c-.1 1.29.1 3.38-.84 4.26-3.16 2.97-6.36 6.37-11.66 4.61 5.13-1.36 9.52-3.78 12.5-8.87"/><path fill="#142131" d="M1000.8 232.73a105 105 0 0 1-8.47-2.59c-.33-.14-.33-.14-.42-.3-.36-.07-.63.04-1.02.56-.12.69-.12.97-.11 1.25l-2.16-5.29.86-.81c3.7 2.3 7.42 4.6 11.32 7.18"/><path fill="#1d2839" d="M970.28 207.94a52 52 0 0 1 4.78-4.68c1.82 1.19 3.56 2.33 5.62 3.52.71.42 1.1.79 1.63 1.38-.62.27-1.7.67-2.11.3-3.1-2.71-6.27-2.05-9.92-.52"/><path fill="#0d1b2f" d="M957.16 120.34c.61 1.08 1.51 2.48 1.79 4 .43 2.35.42 4.78.84 7.67.24.5.15.96.15.96s.06.03-.28.04a10 10 0 0 1-1.93-.83c-.19-3.81-.38-7.63-.57-11.84"/><path fill="#606368" d="M757.02 103.94c.45-.36.9-.72 1.67-1.16 4.68.38 9.03.84 13.12 1.78-.84.5-1.4.51-2.82.48-4.55-.4-8.26-.75-11.97-1.1"/><path fill="#dbac7b" d="M930.74 125.94c-.24.4-.72.83-1.48 1.39-2 .05-3.72-.02-6.29-.14l-5.13-.4.14-1.5c.2-.4.38-.5 1.23-.56l3.73.05c.45.08.9.17 1.92.58 2.11.4 3.63.48 5.15.55 0 0 .49.07.73.03"/><path fill="#fcebd5" d="M890.3 127.35c5.73-.37 11.76-.45 18.23-.4-5.67.32-11.8.5-18.23.4"/><path fill="#222e3f" d="M932.05 164.89a56 56 0 0 1-7.93-.82 33 33 0 0 1 8.1-.44c.09.59-.02.85-.17 1.26"/><path fill="#1d2839" d="M977.43 216.2a24 24 0 0 1 4.61-4.5 4 4 0 0 1-.84 1.85 63 63 0 0 1-3.77 2.65"/><path fill="#fcebd5" d="M917.44 126.8c1.83.1 3.26.22 5.1.43-2.7.2-5.82.31-9.23.15 1.05-.37 2.39-.47 4.13-.58"/><path fill="#172232" d="M954.44 105.69c1.32.27 2.53.46 3.75.65l-.37 1.52a17 17 0 0 1-3.7-1.75c-.02-.37.21-.5.32-.42"/><path fill="#606368" d="M791.32 103.26c-1.2.36-2.55.45-4.38.36.87-2.7 2.5-2.28 4.38-.36"/><path fill="#172232" d="M916.6 104.9c-.47 2.88-1.81 2.79-3.54.4a9 9 0 0 1 3.55-.4"/><path fill="#0d1b2f" d="M991.78 257.73c-.07.32-.3.43-.59.8-.56.2-1.03.25-1.84-.08A3 3 0 0 1 989 257c.86.15 1.73.3 2.79.73"/><path fill="#172232" d="M988.66 257c.34.36.34.72.35 1.35-.45.36-.9.45-1.7.42-.32-.48-.31-.85-.3-1.5.44-.27.88-.27 1.65-.27"/><path fill="#1d2839" d="M983.9 210.63c-.38.32-.67.44-1.12.77-.3-.58-.4-1.26-.33-2.42.6.12 1.05.72 1.45 1.65"/><path fill="#172232" d="M1006.76 265.16a2 2 0 0 1 1.06-.14c-.22.42-.72.82-1.54 1.3-.14-.29.04-.65.48-1.16"/><path fill="#142131" d="M992 230c-.27.36-.54.72-.99 1.38-.17.29-.2.24-.21.26-.03-.27-.03-.55.34-1.24.36-.4.86-.4.86-.4"/><path fill="#1b2b41" d="M258.15 168.06c-.7.63-1.4 1.25-2.53 2.35l-4.35 4.95 3.6 5.95c.85 1.77 1.72 3.53 2.88 5.85a51 51 0 0 1 3.14 6.96c.32 3.02-.21 6.6 4.18 6.82-.05.01.01-.06 0 .33 2.32 5.73 4.68 11.07 7.18 16.73-3.52 0-6.85-.2-10.14.06-3.34.27-5.67-.72-7.35-3.73q-5.99-10.75-12.31-21.3c-1.03-1.72-2.72-3.03-4.1-4.55 0-.02-.03-.06.13-.4-.42-.9-1-1.47-1.91-2.11-1.1.29-1.86.65-3 1.02-5.99 2.21-8.66 8.16-6.2 13.37.08.23-.22.63-.4.7-.28.18-.45.34-.43.37.14.2.32.38.55 1-.32 4.8-.7 9.19-1.23 13.88-.44 1.62-.74 2.93-1.05 4.24h-17.68c1.01-8.64 1.96-16.68 2.96-25.38.01-.83-.04-1-.09-1.17.49-3.35.98-6.7 1.6-10.74.15-1.56.18-2.41.2-3.26.76-5.72 1.52-11.43 2.37-17.96.7-5.54 1.43-10.27 1.79-15.03.08-1.1-1.14-2.31-1.77-3.47 2.37-.71 4.73-1.42 7.9-2.13 4.81.53 8.83 1.06 12.86 1.59-.3 1.43-.6 2.86-1 5.05l-3.14 25.44 1.53.83 22.75-26.8c.86-.75 1.72-1.5 2.87-2.54.28-.28.53-.28.96-.23 6.44-2.79 12.58-1.79 18.99-1.65a560 560 0 0 0-3.28 7.73c-.53.43-1.06.87-2 1.7a4430 4430 0 0 0-14.48 15.53"/><path fill="#1b2a3f" d="M334.23 205.63a7 7 0 0 1-.81 1.98c-5.56 6.96-12.06 11.64-20.42 13.47-2.37.08-4.74.16-7.97.21-6.24-2-11.64-3.96-17.03-5.93-.06-.15-.11-.31-.5-.85-2.17-3.47-4.02-6.56-5.87-9.65-.27-4.73-.54-9.46-.74-14.92.21-1.7.34-2.68.48-3.66 0 0-.15-.26.1-.27.37-.33.38-.65.26-.98.22-.4.44-.8.9-1.8 2.34-4.14 4.43-7.65 6.52-11.16l2.12-1.75 5.12-4.02 3.8-1.46 5.81-1.9c4.03.02 8.05.04 12.86.22 12.44 3.45 18.94 10.54 18.9 22.1-.03 6.8-2.28 13.58-3.53 20.37M317.3 177c-7.18-2.9-13.06-1.45-17.03 4.55a22.8 22.8 0 0 0-3.44 18.1c2 8.93 11.24 12.17 18.56 6.65 8.4-6.34 9.71-21.12 1.9-29.3"/><path fill="#142131" d="M633 260c33.15 0 66.29.12 99.43-.04 44.84-.2 89.68-.64 134.52-.94q2.73-.03 5.37.76c-2.48.52-4.88.64-7.3.76-2.06-.05-4.12-.1-7-.13-1.87.12-2.95.24-4.02.35-3.04-.04-6.08-.08-9.93-.11-1.56.1-2.31.18-3.07.27-4.03-.05-8.06-.1-12.92-.14-1.57.08-2.33.16-3.08.23-.76-.06-1.51-.13-3.09-.2l-12.91.28-11.94-.13c-1.92.08-2.99.15-4.06.22l-55.94.27c-2.26.11-3.67.21-5.08.32-.75-.1-1.5-.2-3.02-.27-12.83.2-24.9.37-36.96.53l-28.91-.04c-1.58.07-2.34.14-3.1.21-2.04-.05-4.08-.1-6.95-.14-1.9.07-2.97.14-4.04.21-1.08-.07-2.16-.14-3.78-.5a5 5 0 0 0-2.2.16c-11.04.16-22.08.33-33.51 0 .52-.96 1.44-1.82 2.38-1.84 7.03-.13 14.07-.08 21.11-.1"/><path fill="#162236" d="M691 163c2.38-.12 4.76-.23 7.9-.35 1.28-.03 1.78-.05 2.24.2-.03.48-.02.67-.27 1.2-6.59 1.55-13.87.68-18.35 9.16 3.93.3 7.07.66 10.22.76 5.84.18 9.38 3.14 9.1 8.82a206 206 0 0 1-2.26 23.65c-1.7 10.36-2.02 10.32 7.96 12.13.27.06.6-.16 1.69-.5 1.23-10.28 2.67-20.87 3.7-31.5.57-5.9 5.53-11.33 10.05-10.02-2.44 2.65-5.63 4.57-6.88 7.37-1.47 3.3-1.26 7.35-1.9 11.4-.11.77-.1 1.22-.2 2-.1.77-.06 1.23-.19 2.07-.5 3.79-.86 7.18-1.37 10.91-.25 1.79-.33 3.24-.59 5.02-.45 1.95-.73 3.58-1.4 5.17-1.4.08-2.42.2-3.88.17-3.75-.13-7.07-.12-10.5-.5.21-5 .54-9.58 1.1-14.4.17-.84.1-1.46.3-2.4.3-2 .31-3.66.43-5.65.2-.75.3-1.18.57-1.83.17-.77.17-1.33.27-2.34-.2-5.15-.5-9.84-.84-14.78-.33-.42-.61-.6-.95-1.01-.49-.47-.92-.69-1.7-1.2-4.94-.7-9.57-1.19-13.16 2.42 1.1-2.93.44-4.84-1.6-6.88-1.47-1.46-2.03-3.8-3.07-5.91-8.91-.5-8.91-.5-11.1 6.74-.31-.28-.68-.6-1.1-1.33-.02-1.46 0-2.52.19-3.84.31-1.13.44-1.98.92-2.85 1.1-.37 1.85-.73 3.02-1.07 1.84-.06 3.25-.13 4.66-.2.75.06 1.5.12 3.02.17 1.87.05 2.97.1 4.08.53a95 95 0 0 1-1.3 5.49c3.04-2.1 5.12-3.52 7.52-4.97.78-.1 1.22-.18 1.93-.13A7 7 0 0 0 691 163"/><path fill="#172232" d="M628.6 62.2c.1-2.8 1.24-3.9 4.33-3.64 10.62.91 21.27 1.5 31.9 2.23.5.03 1.04-.03 1.5.12 1.76.61 3.51 1.29 5.27 1.94l-3.28 4.8c1.45 6.03 3.42 12.72 4.55 19.56.55 3.31-.46 6.89-.65 10.67 0 .56.02.78.12.98-.46-.25-.84-.5-1.28-1.11.2-4.03-.82-7.09-4.17-9.43-.9-6.32-1.9-12.2-2.67-18.13-.46-3.62-2.12-5.14-5.86-4.91q-9.68.58-19.3.34a61 61 0 0 1 2.1-4.23c-5.78-.68-10.92-1.8-11.57 5.74-.03.33-1.06.57-1.65.48.01-1.12.06-1.87.27-2.94.24-1.04.31-1.76.38-2.47"/><path fill="#b67c3c" d="M236.94 128.74c-1.04.03-2.07.05-3.84-.16-11.52-.25-22.3-.25-33.09-.25l-.02-.92 9.63-.74 25.37-1.46c1.73.01 3.47.02 6.07-.02l22.94-1.1c1.07.03 2.15.06 4.07.07 5.89-.06 10.93-.1 16.35-.11 1.16-.02 1.93-.06 3.02-.2.72-.2 1.13-.31 1.94-.31 1.48 0 2.56-.14 4.06-.13 2.48.2 4.53.28 6.33.69-3.55.68-6.84 1.02-10.13 1.36q0 .78.03 1.54c8.44 0 16.88 0 25.32.24v.7c-.43.06-.85.11-2.06.06-24.58-.06-48.37-.02-72.16.07-1.28 0-2.56.43-3.83.67"/><path fill="#ca894c" d="M130.48 244.15s.28.15.84.06c2.3.05 4.04.17 5.76.54-.1.56-.18.88-.61 1.2-5.87.22-5.2 4.68-6.08 8.16-.88 3.45.3 5.01 3.84 4.95 4.93-.08 9.86-.1 15.21-.13 6.8-.32 13.19-.64 20.04-.95 15.42-.32 30.38-.64 45.33-1.03 1.07-.03 2.13-.62 3.66-.96 4.44-.04 8.42-.18 12.4-.05q10.56.34 21.05 1.1c-.04.2-.17.58-.62.51-5.4.14-10.37.34-15.78.44-6.54.14-12.62.38-18.7.63-1.02-.03-2.05-.05-3.92-.05-7.2.22-13.57.42-20.17.56-.23-.05-.68.11-1.12.01-5.5.15-10.55.4-15.6.66-.76-.05-1.52-.1-3.08-.12-3.18.14-5.56.26-8.34.29-1.79.03-3.16.14-4.92.17-1.14-.01-1.9.07-3.1.05-4.14.14-7.85.36-11.99.53-2.14.03-3.86.13-6.03.13-9.93.01-9.93.01-9.29-9.41.06-.8-.02-1.62.02-2.58.06-.15-.14-.39.1-.69.47-1.55.68-2.8.95-4.03.04.03.15.01.15.01"/><path fill="#162236" d="M633 259.64c-7.04.37-14.08.32-21.11.45-.94.02-1.86.88-2.84 1.73-2.8.53-5.54.69-8.9.84-.8-.07-.98-.13-1.3-.54-4.76-.1-9.36.13-13.95.36 0 0 .07.26-.29.29a7 7 0 0 1-2.76-.6c-4.38-.1-8.62.16-12.85.4-5.03.1-10.06.2-15.54-.13-.49-1.37-.5-2.29-.53-3.2 10.4-.4 20.78-.8 32.02-1.2 1.9-.12 2.96-.2 4.01-.3 5.07.08 10.15.15 16.09.22 5.87-.4 10.87-.79 15.87-1.18 3.76.07 7.51.14 11.67.27.4.8.4 1.5.41 2.59"/><path fill="#0d1b2f" d="M591.67 43.8c11.69 0 23.05.1 34.99.47.8.53 1.07.68 1.4.73-.75 3.85-1.5 7.7-2.74 11.69-.27-3.24-.05-6.6.23-10.69h-5.34c-12.65 0-25.3.07-37.95-.04-3.8-.04-7.58-.9-11.36-.85-10.45.14-20.89.64-31.33.85a417 417 0 0 1-21.22-.06c-1.8-.06-3.57-1.25-5.35-1.91 20.03-.05 40.05-.1 60.54-.25.9-.03 1.35.03 2.58.1L590 43.7c.45.07.9.13 1.67.1"/><path fill="#142131" d="m552.94 259.13.06 3.21c-19.5.53-39 .71-59.08.26.64-1.08 1.86-1.52 3.09-1.97l16-.4c3.24-.15 5.62-.27 8-.4l26.98-.7c2.25-.1 3.66-.2 5.07-.28 0 0-.11.18-.12.28"/><path fill="#ca894c" d="m165.29 243.46 39.72-.33c13.3.07 25.67.15 37.9.57-1.9.63-3.65 1.13-5.4 1.14-14.64.09-29.29.07-43.93.12-2.99 0-5.98.32-8.96.22a421 421 0 0 1-19.51-1.15c.03-.2.18-.57.18-.57"/><path fill="#d26a0e" d="M330.56 242c5.13-.05 9.82.03 15.3.42 5.57.4 10.36.48 15.06.96-1.58.8-3.07 1.54-4.57 1.56-7.9.12-15.81-.11-23.7.14-3.74.11-7.43 1.24-11.17 1.54-3.7.3-7.45.26-11.16.07-.5-.02-.9-1.8-.9-2.78 4.23-.47 8-.92 11.76-1.37 0 0 0-.3.16-.34.32-.1.49-.17.65-.23 2.71.05 5.42.1 8.57.02"/><path fill="#dbac7b" d="M180.6 126.93c9.55-.25 18.71-.42 28.24-.4-2.7.41-5.77.65-8.85.88l.02.92c10.78 0 21.57 0 32.7.23-21.3.32-42.95.42-64.6.52-2.42.01-4.85 0-7.29-.9 5.1-.36 10.2-.73 15.74-1.17 1.51-.06 2.58-.03 4.04-.08"/><path fill="#ca894c" d="M320.74 242.38c-3.33.6-7.1 1.06-11.7 1.52-1.9.02-2.95.03-4.47.03-10.25 0-20.03.08-29.8 0-2.58-.02-5.15-.5-7.72-.76 0 0 .05-.33.12-.48 2.05-.15 4.04-.16 6.9-.18L297 242c2.05.05 4.1.1 7.02.15 3.57-.1 6.28-.19 8.98-.28a151 151 0 0 1 7.74.5"/><path fill="#1d2839" d="M722 165.23c2.21-.71 4.43-1.43 6.95-2.3 1.64-.22 2.97-.29 4.68-.5 3.6.47 6.82 1.1 10.58 2.03 1.34 1.01 2.14 1.75 2.53 2.5-3.48-.65-6.51-1.45-9.6-1.93-7.8-1.2-14.2 1.92-20.21 6.51-1.11.85-2.98.7-4.5 1-.26-1.49-.53-2.97-.54-4.25l2.7 2.13z"/><path fill="#354154" d="m275.23 149.38 2.68-6.28c-6.4-.14-12.55-1.14-18.85 1.32 1.79-1.41 3.87-2.44 5.94-3.47l7.81.22c1.23-.05 1.76-.13 2.3-.21.2.05.42.1 1.25.17 2.53.48 4.45.94 6.37 1.4-.6.47-1.2.93-2.24 1.84z"/><path fill="#b4b5b5" d="M365.47 265.16a2.2 2.2 0 0 1-1.44-1.1c6.81-.56 13.72-1.07 20.62-1.01 8.5.07 17.01.6 26.3.96 1.88-.3 2.98-.62 4.09-.93.17 0 .34-.02.75.25.23.46.22.63.2.81-1.74.27-3.5.77-5.25.78-14.93.1-29.87.12-45.27.24"/><path fill="#606368" d="M416.46 264.2c-.45-.24-.44-.41-.41-.86a705 705 0 0 1 35.6-1.11c1.15.43 1.72.56 2.36.9.05.22.04.68.04.68-12.37.15-24.75.3-37.59.4"/><path fill="#142131" d="M465 261.98c.16-.07.33-.14 1.07-.22 2.21-.32 3.85-.64 5.49-.95 2.53.05 5.06.09 8.47.13 4.17 0 7.46-.17 10.72.09 1.03.08 1.96 1.3 2.94 2-7.99.2-15.97.4-24.72.64-1.83-.04-2.9-.1-3.94-.42 0-.6-.02-.93-.03-1.27"/><path fill="#354154" d="M408.95 104.18c-.15.07-.3.14-.7.23-.42-.05-.58-.14-1.02-.32-2.47-6.53-1.01-8.73 5.67-8.83a79 79 0 0 1 11.55.59c-3 .67-6.14 1.28-9.2.97-4.9-.5-7.26.96-6.32 6.46 0 .5.01.7.02.9"/><path fill="#142131" d="M585.36 262.58c4.13-.33 8.73-.57 13.15-.38-.62.53-1.07.63-1.51.73-3.73-.08-7.46-.17-11.64-.35m-15.92.1c3.8-.35 8.03-.6 12-.4-1.65.55-3.05.64-4.44.74-2.38-.08-4.75-.16-7.56-.34"/><path fill="#2b3341" d="M464.55 261.88c.46.44.48.77.11 1.5-1.13.48-1.9.58-2.66.67-2.36-.05-4.71-.1-7.5-.2-.45-.04-.44-.5-.45-.92v-.82c3.35-.1 6.7-.21 10.5-.23"/><path fill="#c78d51" d="M332.58 122.18c.39-.1.5.3.13.58-4.14.3-7.92.32-11.57.1l.4-.7c2.2.07 4.42.13 7.05.1 1.47-.06 2.53-.02 3.99-.08"/><path fill="#172232" d="M897.43 259.84c1.5-.33 3.44-.57 5.47-.48-1.62.42-3.34.5-5.47.48"/><path fill="#2b3341" d="M643.2 262.03c.37-.25.92-.4 1.62-.33-.38.29-.91.36-1.62.33"/><path fill="#142131" d="M817.3 251.3c3.51-.5 7.32-.74 11.13-.87 24.21-.86 48.42-1.69 73.1-2.46-1.17.73-2.78 1.88-4.44 1.95-11.1.5-22.2.8-33.3 1.08-14.6.38-29.19.68-43.78.99-.8.01-1.62-.26-2.72-.7"/><path fill="#0d1b2f" d="M753.12 252.31c1.05.04 2.1.08 3.52-.03 18.79-.56 37.22-.96 56-1.28-.95.72-2.2 1.75-3.58 1.94-5.96.8-11.94 1.52-17.94 1.9-2.3.15-4.7-1.12-7-.95a410 410 0 0 1-46.37.42c5.21-.9 10.29-1.45 15.37-2"/><path fill="#142131" d="M929.54 246.8c1.21-.04 1.96.02 3.08.17-.41.72-1.2 1.93-1.99 1.93-8.35 0-16.7-.19-25.35-.63 7.74-.66 15.77-1.02 24.26-1.47"/><path fill="#0d1b2f" d="M660.05 255.91c2.53-.56 5.3-.75 8.94-.95 2.56-.05 4.27-.11 5.99-.17 1.72.05 3.44.1 5.59.22-.06.68-.54 1.81-1.01 1.8a268 268 0 0 1-19.5-.9m57.1-.8c-.27-.32-.2-.8-.2-1.04 4.7-.2 9.4-.15 14.58-.18.62-.02.78.03 1.2.16-4.94.5-10.12.95-15.58 1.06m-16.59-.22c1.5-.02 2.55.04 4.01.16-5.4.22-11.2.38-17.3.22 4.1-.3 8.47-.3 13.29-.38"/><path fill="#162236" d="M648.13 257.08c.27-.61.76-.93 1.56-1.34 1.06-.03 1.82.03 2.94.17a14 14 0 0 1-4.5 1.17"/><path fill="#ca894c" d="M682.47 238.72c1.78-.04 3.56-.08 6.19 0 1.17.07 1.49.02 1.99-.08.45-.11.7-.06 1.4.17 1.1.03 1.74-.02 2.8-.15 3.68-.29 6.94-.49 10.2-.7.42.08.85.16 1.98.29 3.79-.1 6.88-.24 9.97-.38 1.07.06 2.14.1 4.06.16 10.55 0 20.25 0 30.1.2A5 5 0 0 0 753 238l.48.03c5.22-.02 9.96-.08 14.71-.14 5.27-.09 10.54-.17 16.55.13 7.13.55 13.52.82 19.9.84 1.5 0 2.99-.8 4.47-1.25.18-.02.35-.05.74.34a10 10 0 0 1-.84 3.03c-12.38.55-24.77 1.09-37.57 1.71-10.14.4-19.84.7-30.46 1.05L705 244.97l-4.06-.1c-12.55.46-24.24.91-35.94 1.37-.45-.05-.9-.1-2.1-.14-3.18.17-5.63.34-8.07.5L633 247c-3.3.15-5.7.28-8.1.4 0 0 .02-.35.19-.89 1.38-.84 2.6-1.4 3.83-1.42 15.07-.4 30.15-.7 45.23-1.07 1.14-.02 2.28-.36 3.42-.55l-.04-.94-3.5-.97.08-.49h13.92c-14.47-1.09-28.9-1.05-43.32-1.12-3.29-.01-6.57-.36-9.58-.67a6 6 0 0 1 1.3-.37c2.49-.17 4.53-.29 6.94-.3 1.11.02 1.86-.05 3.04-.02 3.75.17 7.05.22 10.73.3.62 0 .87-.02 1.54-.11 2.74-.22 5.04-.38 7.34-.55.44.09.87.17 1.99.29 2 .11 3.3.2 5.11.37 3.44 0 6.39-.08 9.34-.16"/><path fill="#16253b" d="M910.02 222.99c.99.42 2.52.6 2.85 1.33.54 1.23.32 2.8.43 4.23l1.3.8c1.89-2.09 3.78-4.18 6.04-5.87.4 2.2.44 3.99.47 5.78-1.08 6.11-5.22 9.6-10.6 11.62-11.54 4.33-23.4 4.73-35.05.83-2.94-.98-5.02-4.58-7.47-7.35 1.59-.45 3.17 2.84 4.73-.38l3.77 4.1-1.12 1.33c1.33.5 2.63 1.23 4.01 1.44 3.15.48 4.31-.64 3.01-3.91-.53-1.34-.28-3 .07-4.84a35.3 35.3 0 0 0 20.04.44c3.75-.96 6.23-3.1 6.36-7.52.6-.79.88-1.4 1.16-2.03m-37.61 14.49s.11-.07 0 0"/><path fill="#c49a6c" d="M809.47 241.04c-.11-.93.24-1.8.63-3.04.43-.4.82-.45 1.55 0 2.47 2.75 4.3 3.49 5.26-.44 3.73-.2 7.47-.39 12.04-.58 1.9-.06 2.98-.13 4.05-.2.46.05.92.1 2.11.16 1.75-.04 2.78-.1 3.82-.16.46.04.92.09 2.16.15 3.47-.04 6.15-.1 8.84-.17 2.06.06 4.13.11 6.63.08 3.63.11 6.82.31 10.02.52v1.98c-18.89.59-37.77 1.18-57.1 1.7"/><path fill="#222e3f" d="M916.03 212.59c-9.03-.3-18.25-.77-27.41-1.76-1.6-.17-3.34-2.34-4.28-4-.37-.67 1.25-2.46 2.33-3.78-1.63 4.34.3 6.22 4.59 6.47 6.15.35 12.31.5 18.45.99 2.09.17 4.1 1.13 6.32 2.08m1.35-18.56c.1-1.42.12-3.28 1.01-4.5 2.2-3.03 2.93-5.88 1.92-9.72-.93-3.5.12-6.96 4.62-7.93 1.92-.42 3.79-1.12 6-1.8-.73.9-1.68 2.58-2.85 2.75-4.62.7-7.08 2.13-5.74 7.64 1.24 5.1-1.1 9.62-4.96 13.56m-28.94 7.79c.5-.54 1.4-1.57 2.44-1.74 6.85-1.1 13.74-2.03 21.02-2.98-3.92 1.56-8.16 3.52-12.62 4.48-3.31.72-6.9.14-10.84.24m32.99 27.33a31 31 0 0 1-.43-5.72c.03-1.97.05-3.5.12-5.47.24 3.38.44 7.23.31 11.19m-1.39-13.48q-1.48-.61-3.03-2.27 1.5.61 3.03 2.27m-6.73-18.52c-.08-.34.15-.62.65-.98.07.29-.13.66-.65.98"/><path fill="#dbac7b" d="M683.25 126.92c-.26-.4-.32-.85-.3-1.63.39-.08.68.18 1.02.72 0 .6-.19.8-.72.9"/><path fill="#edeff0" d="M908.54 225.18c.2 4.26-2.29 6.4-6.04 7.36-6.6 1.68-13.15 1.75-19.99-.81-.69-.45-.98-.85-1.33-1.8a3 3 0 0 0-1.05-1.3c.02-.36.04-.73.05-1.61a7 7 0 0 0-.12-1.03l.43-.5c.43-.62.63-.97.83-1.32 0 0-.17-.02.12-.06.48-.35.67-.68.87-1 .53-.4 1.06-.8 2.16-1.53 6.36-.32 12.18-.67 17.92-.15 2.15.2 4.1 2.44 6.15 3.75"/><path fill="#172232" d="M908.86 225.02c-2.36-1.15-4.32-3.39-6.47-3.59-5.74-.52-11.56-.17-17.8-.07 0-.67.47-2.11.9-2.1 7.05.13 14.09.36 21.11.84 1.07.07 2.06 1.47 3.25 2.57-.11.94-.4 1.56-1 2.35"/><path fill="#16253b" d="M878.47 234.45c.05-.03-.06.03 0 0m1.71-5.53q.44-.07.9.77c-.32.05-.58-.22-.9-.77m1.84-5.72q.14.34-.56 1-.13-.34.56-1m-2.14 2.88c.21.08.25.25.2.67-.25.08-.43-.09-.58-.29-.02-.03.13-.2.38-.38m1.14-1.81q.15.37-.59 1.07-.15-.38.59-1.07"/><path fill="#edeff0" d="M957.37 174.95c9.4-2.64 15.58.37 16.54 7.67.33 2.5-.07 4.32-3.15 4.3-5.32-.03-10.64-.01-15.95-.02h-4.86c-.37-5.94 2.85-9.16 7.42-11.95"/><path fill="#1d2839" d="M953.17 209.76c5.27-.8 10.64-1.26 16.38-1.79 0 .8-.2 2.2-.82 2.43-5.16 1.85-10.4 3.19-15.56-.64m-5.51-14.71c.35.13.35.3.36.75 1.03 3.87 2.06 7.47 3.26 11.36-4.66-.55-7.19-8.07-3.62-12.1m3.8 12.8c.24-.01.43.27.69.8-.2 0-.47-.26-.7-.8"/><path fill="#2b3341" d="M845.2 106.9c-3.13.1-6.06.1-9 .1l-.01-.97h9.3c.38.32.2.57-.28.86"/><path fill="#0d1b2f" d="M777 177.1c-4.4-.09-8.8-.18-13.82-.3-1.02.07-1.42.15-2.11-.01-.49-.42-.68-.59-.75-1.09.07-.8.02-1.26-.04-1.73.14-.15.27-.3.55-.71 1.9.4 3.63 1.56 5.4 1.65 5.14.25 10.3.03 15.43.13.86.02 1.71.73 2.04 1.47-2.6.44-4.65.52-6.7.6"/><path fill="#2b3341" d="M843.73 214.65a37 37 0 0 1-6.37 4.38c.26-3.77 3.12-4.3 6.37-4.38m1.81-2.18c.03.05-.02-.05 0 0m-13.56-106.12c-.53.33-1.22.47-1.91.6l-.1-.63c.6-.05 1.22-.1 2 .03m-44.04-.52c-.1.22-.27.28-.69.21.04-.2.33-.3.69-.21m21.02 1.87c-.08.2-.26.24-.7.19.04-.18.32-.26.7-.19"/><path fill="#1d2c42" d="M761.76 167.6q-.16-.76.13-2.23.14.75-.13 2.23"/><path fill="#15263d" d="M991.91 229.83c.09.17-.4.17-.65.17.02-.12.3-.23.65-.17"/><path fill="#1d2b41" d="M647.69 209.05c-.41.36-.82.73-1.58 1.5-1.7 1.76-3.07 3.13-4.44 4.5l-2.89 1.61c-3.96 1.65-7.37 2.96-10.78 4.27-2.7.15-5.41.29-8.88.43a17 17 0 0 0-2.13.24 221 221 0 0 1-7.83-1.03c-8.84-2.18-14.93-6.7-17.44-14.86-1.15-3.73-1.23-7.8-1.8-11.71.16-1.37.32-2.74.6-4.87.46-4.55.8-8.34 1.16-12.14l.6-3.94c.12-1.5.13-2.25.13-3l1.11-7.25c.08-.97.06-1.35.04-1.73.88-6.36 1.76-12.72 3.23-19.41 4.74-.34 8.9-.5 13.03-.28 1.42.08 2.8 1.06 4 1.97-.4 2.45-.6 4.55-.98 7.02-1.5 11.4-2.8 22.44-4.03 33.48.07.02-.05-.08-.22.06-.3.45-.26.73-.22 1.43-.22 3.51-.29 6.59-.42 10.05.22 1.37.52 2.35.78 3.6.33.88.7 1.49 1.17 2.45 6.96 6 13.35 6.64 20.65 2.24 1.4-1.24 2.46-2.4 3.81-3.75 1.8-5.78 3.3-11.35 5-17.21.28-1.45.36-2.6.6-4.13.34-2.05.52-3.7.82-5.73.81-6.88 1.5-13.37 2.35-20.17.14-.77.11-1.23.29-2 .29-1.76.38-3.23.47-4.69-.17-5.59 3.83-4.72 7.7-4.83 3.08 0 5.75.1 8.86.16.6.33.76.7 1 1.38-.1 1.36-.27 2.43-.5 4.13-.03.82.01.99.05 1.16l-1.64 9.97c-.58 4.77-.98 8.74-1.5 12.7-1.68 12.69-2.27 25.64-9.22 37 0 0 .13.15-.17.2-.46.44-.62.8-.78 1.18"/><path fill="#19283e" d="M671.06 97.75c-.7 1.4-1.44 2.42-2.14 3.85-.12.69-.27.98-.56 1.88.57 3.02-4.13 7.59 2.64 7.58.36 2.08.73 4.17.94 6.82a4 4 0 0 0-.11 1.13c-.3.46-.6.93-.93 1.67-1.79 1.13-3.55 1.97-5.6 3-2.35.17-4.4.16-7.16.1-1.15-.08-1.58-.1-2-.14-.04-.37-.07-.74-.08-1.79-.03-2.4-.07-4.13-.05-6.11-.02-.42-.11-.57-.21-1.03-.54-1.13-1.08-1.96-1.68-3.12-1.07-1.16-2.08-2-3.28-3.11-2.42-.98-4.63-1.68-7.08-2.5-.42-.06-.59-.02-1.19-.1-7.82-.62-13.78 2.16-18.75 7.97-1.52 2.79-2.76 5.43-4.37 8.13-2.07.97-3.7 2.21-5.52 2.7-1.87.5-3.94.26-5.93.34-21.38-.2-42.75-.4-64.59-1.16a190 190 0 0 1-2.9-14h3.52l73.28.13c.5-.31.68-.65 1.07-1.3 1.86-7.86 3.52-15.4 5.36-23.2.2-.66.22-1.08.37-1.7.13-.55.14-.87.36-1.47.28-.95.34-1.63.54-2.68.83-3.95 1.52-7.55 2.4-11.26.2-.11.55-.4.55-.4.57-.28 1.6-.52 1.63-.85.65-7.54 5.79-6.42 11.57-5.74-.82 1.57-1.43 2.72-2.4 4.42-.84 1.76-1.33 2.98-2.04 4.35-.07.7.07 1.27.35 2.2a5 5 0 0 1-.67 2.74c-1.51 3.39-4.82 7.46.46 9.45 4.45 1.68 9.55 1.65 14.57 2.37.2 0 .59.17.84.44 3.76.68 7.27 1.1 11.16 1.47 1.4-.06 2.42-.08 3.44-.1 3.37 1.93 4.4 4.99 4.2 9.02"/><path fill="#1b2a40" d="M370 221.05c-3.03.03-6.06.06-9.85 0-1.23-.13-1.69-.15-2.15-.18 0 0-.17-.18-.55-.4-3.01-2.81-6.85-5-7.97-8.14-1.48-4.15-1.28-9.08-1-13.62.47-7.36 1.58-14.68 2.46-22.3l-9.12-.62 1.32-11.77 9.49-.52c.16-2.31.3-4.4.46-6.5.12-.3.24-.6.46-1.4.1-1.17.13-1.86.14-2.55.24-1.35.49-2.7.93-4.5.45-.6.57-.8.56-1.1l1.92-.16c1.4-.19 2.15-.3 2.9-.42 3.3.08 6.58.17 10.23.39.36.13.3.14.3.14a1238 1238 0 0 0-2.13 11.38c-.1 2.18-.1 3.63-.38 5.29.54.79 1.34 1.79 2.2 1.85 2.75.22 5.53.08 8.82.08l-1.68 8c-2.97 0-5.61.02-8.25-.01-3.7-.04-5.24 1.53-4 5.45.02.21-.18.57-.34.66-.22.19-.36.34-.33.38.13.19.3.34.54.91-.3 2.48-.68 4.56-1.33 6.88-.05 2.08.15 3.9.45 6 .12.46.14.65-.17.9-.56.65-.8 1.25-1.28 2.07-.06 1.4.12 2.57.52 4.04a2.5 2.5 0 0 1-.18 1.76c-.29.18-.48.33-.47.36.14.21.3.4.5.98 3.65 6.45 8.77 3.47 13.44 2.3 2.88 11.23 2.88 11.23-6.46 14.37"/><path fill="#192941" d="M400 220.86c-.16.06-.32.1-.79-.01-.3-.18-.3-.53-.32-.9-8.53-6.89-9.26-15.54-7.04-25.19.34-1.47-.77-3.28-1.2-5.34.19-1.75.35-3.1.86-4.52 1.6-2.66 3.04-5.23.36-8.05a3.5 3.5 0 0 1-.95-1.23 34 34 0 0 0-4.92-2.75c0-2.54 0-5.18.39-7.92 1.75-.16 3.1-.2 4.67.06 5.22.35 6.63-3.65 3.57-9.6.04-1.42.06-2.46.07-3.5q0-.02.68-.04a86 86 0 0 0 6.43-2.88q2.1-1.03 4.2-2.09c.46 0 .9 0 1.73.05.37.04.22.18.23.52.69 1.4 1.37 2.47 2.1 3.8-.23.45-.53.63-1.15.81a108 108 0 0 0-.93 10.26c-.67 2.14-1.15 3.85 2.23 3.64 1.9-.34 3.4-.69 5.18-1.05a3.4 3.4 0 0 1 1.69.25c1.11.46 2 .65 2.9 1.28.04 1.9.07 3.38.15 5.18-.04 1.02-.13 1.7-.67 2.36-2.58 0-4.75-.28-6.81.08-1.63.28-3.12 1.32-4.84 2.17-.4.35-.63.55-1.2.81a21 21 0 0 0-.62 5.3 8 8 0 0 1-.26 2.8c-.04.71.14 1.28.28 2.25-.32 2.45-.6 4.5-1.06 6.65-.27.19-.43.36-.42.38.16.2.35.36.7.54.17 0 .5-.1.31.23-.18.8-.18 1.3-.32 2.22-1.1 10.93 1.67 13.16 11.05 9.43.24-.1.6.1 1.2.23.48 2.1.85 4.37 1.5 6.54 1.08 3.56-.15 5.4-4.03 5.37-4.15-.2-8.08-.22-11.98.09-1.03.08-1.98 1.16-2.96 1.77"/><path fill="#19283e" d="M540.45 193.19c0 .42-.02.84-.43 1.63-.6.63-.81.9-1.02 1.15-.45.07-.9.14-1.76-.28-3.41-.9-6.4-1.58-9.38-1.57-1.62 0-3.24 1.2-4.86 1.86-3.37.06-6.74.12-10.84-.2-4.2-.85-7.68-1.3-11.28-2.08.04-3.13.2-5.96.71-8.62 2.37.44 4.4.72 6.52 1.38a255 255 0 0 0 18.99 1.13c.29 0 .6-1.04 1.14-1.77-.26-.72-.75-1.27-1.36-2.13-.1-.74-.1-1.17.22-1.83 1.46-2.92.86-4.57-2.28-4.71.07-.05-.03.1.03-.27.43-1.43.8-2.5 1.24-3.8-4.13-.36-8.24-1.1-12.33-.94-2.65.1-6.38-.22-6.71 4.4-.28.44-.53.54-1.1.63-.46.4-.66.72-.86.98 0-.04.09-.02-.3-.05-1.52 1.62-2.66 3.26-4.2 4.9-2-.8-4.19-1.2-5.08-2.5-1.36-1.96-1.82-4.54-2.55-7.14.86-1.2 1.62-2.11 2.38-3.03 0 0-.28-.28.13-.22 1.29-.72 2.16-1.5 3.04-2.3 0 0 .19-.1.6-.21 3.6-1.56 6.77-2.99 9.95-4.43 3.68-.1 7.35-.22 11.85-.26 2.87.43 4.92.79 6.97 1.15 0 0 .15.35.2.9 3.1 2.98 6.18 5.41 9.25 7.85 0 0-.12.03-.18.4a598 598 0 0 0 1.98 18.03c.09.7.87 1.3 1.32 1.95"/><path fill="#162236" d="M532.25 133.45c-.73 1-1.47 2.01-2.65 2.59a107 107 0 0 0-3-2.57l-.89 1.31 3.5 1.68a25 25 0 0 1-4.12 2.6c-.8.32-.98.62-1.16.91-3.2-.34-6.41-.7-10.15-1.42-1.62-1.43-2.7-2.48-3.79-3.53 0 0-.04-.03-.05 0a26 26 0 0 1-1.95-3.98c-.12-.96-.21-1.33-.3-1.7l.13-2.33a268 268 0 0 1 6.2-12.9 61 61 0 0 0 3.1-.89 66 66 0 0 0 3.88-2.25c.79-.3 1.58-.6 2.61-.5-.36 1.42-.98 2.45-1.97 4.11 9.65.34 13.54 5.06 10.97 15.6 2.12-1.98 2.77-2.59 3.86-3.13l1.32.25c-.24.66-.49 1.32-.9 2.34-.15.35-.42.34-.53.45-.25.27-.35.46-.47.96-.35.83-.63 1.37-.91 1.9-.67.3-1.34.59-2.41.3-.8-.98-1.2-1.36-1.6-1.75-.15.22-.44.61-.42.63q.84.7 1.7 1.32m-16.1-10.67c.47 2.75.14 6.08 1.6 8.12 1.88 2.63 8.49 1.21 11.16-1.84 2.53-2.9 3.48-6.2 1.1-9.55-2.16-3.03-7.33-3.1-10.86-.34-1.03.8-1.78 1.96-3 3.6m-6.02 8.07c1.96 2.14 3.66 4.62 5.94 6.34 2.32 1.74 4.3.96 4.86-2.5-8.41-2.4-8.48-8.43-5.98-16.03-5.29 3.1-4.99 7.28-4.82 12.19"/><path fill="#1d2839" d="M431.28 169c.52-4.73 1.03-9.46 1.48-14.6.36-4.26.8-8.12 1.78-12.35 2.18-.53 3.82-.68 5.45-.83 1.08.11 2.16.22 4.03.33 2.48.09 4.16.17 5.9.26l-.87 11.2c-.34 2.07-.69 4.15-1.07 6.85 0 .8.04.97.09 1.13-.12.45-.23.9-.47 2.03-.69 4.96-1.25 9.22-2.19 13.23-.65-1.32-1.25-2.4-1.14-3.43 1.03-9.75 2.18-19.49 3.35-29.78-3.3 0-6.25-.19-9.16.1-.88.1-2.2 1.43-2.34 2.35-.86 5.52-1.27 11.1-2.2 16.6-.41 2.38-1.73 4.6-2.64 6.9"/><path fill="#c78d51" d="M465 126.84c-2.46.15-4.91.3-7.72.59-10.37.16-20.36.18-31.26.2l-8.02.22c-2.7-.04-5.4-.07-8.56-.03a37 37 0 0 1-7.86-.72 2.8 2.8 0 0 1 2.11-1.04q29.03-.08 58.07-.03c1.08 0 2.15.53 3.23.81"/><path fill="#e6e6ea" d="M514.02 113.75c-2.06 4.45-4.12 8.54-6.28 12.98a8 8 0 0 1-4.36-2.07l3.83-8.4c-.02 0 .02 0 .3-.18 2.04-2.33 3.77-4.49 5.51-6.64 3.95.42-.17 2.85 1 4.31"/><path fill="#172232" d="M379.59 163.8a55 55 0 0 1-1.88 11.97c-3.3.47-6.04.55-9.11.56-1.4.92-2.45 1.91-3.5 2.9-1.23-3.7.32-5.28 4.01-5.24 2.64.03 5.28 0 8.25 0l1.68-7.99c-3.3 0-6.07.14-8.81-.08-.87-.06-1.67-1.06-1.79-1.87 2.66-.29 4.61-.34 6.57-.39 1.39.08 2.78.16 4.58.14"/><path fill="#1d2839" d="M480.59 163.67c1.04.06 1.68.2 3.16.54-2.23 2.44-4.15 4.53-6.54 6.42-1.84-4.36-5.61-6.05-9.45-4.23q-2.84 1.36-5.73 2.63c-.04-.04-.13-.14-.07-.4.33-.72.6-1.18.86-1.64a55 55 0 0 1 5.96-3.21c1.14-.1 1.69-.2 2.23-.3.75.08 1.5.15 2.94.23 1.15-.06 1.6-.13 2.06-.2 1.39.09 2.78.16 4.58.16"/><path fill="#0d1b2f" d="M507.23 116.27c-1.2 2.6-2.41 5.21-3.93 8.04-4.32.22-8.34.21-12.82.2-2.22-.74-5.22-1.16-5.5-2.27-.83-3.28.45-6.18 4.6-6.86-.37 1.12-1.47 1.92-1.64 2.89-.23 1.34.1 4 .42 4.04 3.87.43 7.83.83 11.68.44 1.23-.12 2.1-2.71 3.37-3.92 1.1-1.04 2.54-1.72 3.82-2.56"/><path fill="#172232" d="M537.32 172.46a87 87 0 0 1-9.23-7.3c.93-.04 1.88.3 3.31.9l2.5 1.33c.4.5.81 1 1.53 1.6a14 14 0 0 1 1.89 3.47"/><path fill="#1d2839" d="M455.27 176.5c1.22-1.85 2.45-3.7 3.8-5.92.1-.37.08-.46.4-.57 1.02-.45 1.73-.78 2.43-1.12 0 0 .09.1.1.5-.64 4.25-3.09 6.28-6.73 7.1"/><path fill="#0d1b2f" d="M405.57 146.83c-.96.77-2.35 1.48-3.76 2.16-1.99.97-4 1.92-6.35 2.96-1.22-3.46.55-4.85 3.82-4.98 1.95-.08 3.9-.14 6.29-.14"/><path fill="#e6e6ea" d="M507.54 129.62c.24.1.33.46.35 1.1q-.35-.14-.35-1.1"/><path fill="#d4721a" d="M447.93 251.55c-.76.12-1.51.25-2.57.37-.3 0-.32-.3-.67-.51-11.46.27-22.56.77-34 1.34a4 4 0 0 1-2.03-.26c-4.1-.33-7.88-.41-11.81-.72-.72-.07-1.29.08-2.19.25-.77.01-1.2 0-1.8-.23-.72-.07-1.3.08-2.25.25-1.11.02-1.85.01-2.58-.4 1.39-1.16 2.7-2.15 4.17-2.57 1.55-.44 4.22.28 4.74-.55 2.36-3.77 5.86-2.4 8.95-2.47 7.48-.16 14.98.12 22.47-.12 4.05-.12 8.08-.94 12.11-1.44l-.15-1.5c-2.78 0-5.55 0-8.32-.17 0-.18.03-.53.45-.58 2.77-.35 5.11-.65 7.87-1.18 4.52-.5 8.63-.76 12.73-1.02 1.06.1 2.11.22 3.92.32 4.19.03 7.63.07 11.34.3a32 32 0 0 0 5.06-.36c1.48-.05 2.56-.01 3.88.24 1.4.05 2.57-.1 4.16-.32 1.8-.04 3.19 0 4.74.23.72.06 1.3-.07 2.27-.28 1.8 0 3.18.08 4.67.5 5.24 1.01 10.4 1.56 15.5 2.4 1.58.26 3.03 1.33 4.55 2.02-1.23 1.56-1.84 1.84-2.47 1.86-8.57.37-17.14.55-25.7 1.1-5.34.35-10.65 1.25-16.45 1.92-5.75.03-11.04-.05-16.32.14-1.44.05-2.85.93-4.27 1.44m-18.7-3.02c-.38-.13-.77-.28-1.16-.36-.08-.02-.21.2-.32.3.4.12.78.25 1.49.06m3.35-.01s-.11.06 0 0"/><path fill="#1d2c42" d="M549.32 196.62c-.93-.82-2.1-1.82-2.05-2.74.21-3.63.81-7.24 1.3-11.15h31.35c-.65 4.57-1.26 8.8-1.99 13.39-4.43.37-8.73.4-13.93.42-4.93.08-8.96.16-13 .25-.45-.11-.9-.22-1.68-.17"/><path fill="#1d2839" d="M444.88 184v2.95l1.13.92c.77-1.2 1.54-2.4 2.64-3.38-.68 3.97-1.93 7.65.8 11.34 4.81 6.47 6.28 15.18 13.79 19.95 2.04 1.3 7.4 3.27 9.34 1.69.65-.53 1.17-2.23.81-2.85-3.35-5.79-6.99-11.41-10.36-17.2-1.55-2.66-2.7-5.56-4.21-8.75l5.52-3.3c-2.87 3.08-2.74 5.9-.32 9.5 4.97 7.42 9.37 15.22 14.27 23.07.14 1.1.02 1.99-.22 3.2-.12.33-.05.28-.05.28-3.06-.3-6.11-.58-10-.88-2.23.07-3.64.15-5.04.23-.4-.12-.79-.24-1.53-.5-.47-.37-.67-.48-.93-.46-.34-.82-.67-1.63-1.34-2.97-4.88-8.67-9.43-16.81-14.5-25.9a229 229 0 0 1-2.96 15.78c.08-5.48.28-10.7.92-15.86.29-2.34 1.46-4.58 2.24-6.86m-15.59 36.67a36 36 0 0 1-4.21-.62c1.08-9.45 2.16-18.81 3.37-28.97.48-4.16.82-7.53 1.16-10.9.39-2.48.78-4.97 1.58-7.53.21 4 .15 8.1-.22 12.15-.71 8.02-1.24 16.08-2.51 24.02-1.33 8.26-.6 9.53 7.52 9.16.8-.04 1.58-.21 1.39-.18 1.73-3.4 3.11-6.1 4.54-8.43.07 1.13.09 1.88.1 2.63-.5 2.68-.99 5.36-1.73 8.37-.25.33-.28.3-.28.3a20 20 0 0 0-1.97-.2c-1.39.1-2.18.2-2.97.31a113 113 0 0 0-5.77-.11"/><path fill="#222e3f" d="M484.54 192.16c1.68-4.8 3.35-9.6 5.26-14.23-.78 7.48-2.4 14.78-2.54 22.1-.06 3.53 2.02 7.63 4.3 10.57 6.49 8.4 15.4 10.61 25.63 8.47 3.69-.77 7.46-1.14 11.19-1.69l-10.25 3.8c-1.36.2-2.39.24-4.14.29-1.47.11-2.23.21-2.98.32-2.4-.33-4.81-.67-7.62-.97-10.5-3.59-17.31-10-18.62-21.96-.12-2.75-.17-4.72-.23-6.7"/><path fill="#ca894c" d="M432.62 240.27c2.54.07 4.68.24 7.05.71a41 41 0 0 1-7.64 1.2c-2.55.02-4.25.06-6.27.05-.8-.43-1.28-.8-1.77-1.18 1.43-.2 2.86-.42 4.64-.72 1.43-.04 2.51 0 3.99-.06"/><path fill="#0d1b2f" d="M414.95 219c-.04.58-.3.84-.74 1.2-1.07.2-1.98.3-3.38.6-.94.3-1.39.38-1.83.46-2.7-.08-5.4-.16-8.55-.31.54-.7 1.5-1.78 2.52-1.86 3.9-.3 7.83-.3 11.98-.09"/><path fill="#13233a" d="M624.92 61.6c.04.4-.22.59-.39.84s-.54.52-.78.3c-2.33 6.1-6.34 12.05-3.91 19.23-1.34 6.33-2.79 12.64-3.97 18.99-.69 3.67-2.3 5.03-6.3 4.98-37.22-.4-74.44-.57-112.39-.84-1.1.05-1.48.13-1.85.21-4.48-.19-8.95-.38-13.88-.46-2.83.03-5.2-.06-8.43-.16-2.57.06-4.3.13-6.02.2l-52.16-.44a91 91 0 0 1-5.43-.15c-.47-.32-.48-.52 0-1.01 15.29-.3 30.1-.3 44.92-.3v-1.4c-.44-.18-.86-.46-1.31-.52-6.01-.71-12.05-1.25-18.02-2.22-1.13-.18-1.99-2.01-2.97-3.08 2.34-.1 4.68-.2 7.66.11 9.04.61 17.44.9 25.84.99 8.78.1 17.57.04 26.35-.03 2.48-.02 5.05-.24 2.98-3.88l.89-5.5c-1.9-.11-3.62-.3-5.34-.3l-99.44-.03c-2.95 0-6.63.72-6.54-3.85.08-4.2 2.97-5.28 6.9-5.26 33.47.19 66.95.25 100.43.34 7.42.02 7.42.01 8.29-8.29h-5.27c-20.32 0-40.65.05-60.97-.08-1.74 0-4.8-.92-4.96-1.81-.33-1.92.84-4.1 2.02-5.92 1.09.4 1.55.68 2.02.68 21.85.04 43.71.08 65.57 0 1.23-.01 2.45-1.1 3.68-1.68l2.57-8.07c.89-3.5 1.57-6.32 2.24-9.14 1.74-.1 3.47-.2 5.63-.18 2.2.78 3.97 1.97 5.77 2.03a417 417 0 0 0 21.22.06c10.44-.21 20.88-.71 31.33-.85 3.78-.05 7.57.81 11.36.85 12.65.11 25.3.04 37.95.04h5.34c-.28 4.08-.5 7.45-.4 11.01.12 1.53-.07 2.86-.23 4.59M478.1 102l-12.33-.92-.05 1.58h15.05l.02-.5a50 50 0 0 0-2.7-.16m6.3.88h3.64l-.06-.9c-1.34.15-2.67.31-3.59.9"/><path fill="#d07924" d="M506.57 43.92a52 52 0 0 1-1.84 8.88c-27.96.37-55.75.45-83.53.5-2.16.01-4.32-.16-6.48-.17-3.05-.03-4.71-1.47-4.62-4.57.09-3.03 1.35-5.15 4.75-5.19q5.25-.05 10.48-.02c26.95.14 53.9.3 81.24.57"/><path fill="#15263d" d="M431.66 95.63c1.35 1.2 2.21 3.04 3.34 3.22 5.97.97 12 1.5 18.02 2.22.45.06.87.34 1.3.52v1.4h-44.91c-1.42-5.2.94-6.68 5.85-6.17 3.05.31 6.2-.3 9.57-.82 2.34-.39 4.4-.45 6.83-.37"/><path fill="#0d1b2f" d="M501.72 61.2c-.8.64-2.03 1.73-3.26 1.73-21.86.09-43.72.05-65.57.01-.47 0-.93-.29-1.67-.77a19 19 0 0 1 5.99-1.12c21.36-.02 42.73.04 64.51.14"/><path fill="#354154" d="M494.6 93.28c2.33 3.32-.24 3.54-2.72 3.56-8.78.07-17.57.12-26.35.03-8.4-.1-16.8-.38-25.4-.89 16.19-.46 32.59-.57 48.99-.84 1.75-.03 3.49-1 5.49-1.86"/><path fill="#cd7723" d="M504.99 240.14c2.38-.05 4.77-.1 7.9.18 21.1.44 41.45.55 61.8.57.8 0 1.58-.87 2.37-1.33 1.06-.14 2.11-.28 4.01-.41 10.01-.02 19.18-.05 28.8 0 8.61.14 16.8.19 24.99.23 3.29.2 6.57.55 9.86.56 14.42.07 28.85.03 43.32 1.12h-13.92l-.07.49 3.49.97.04.94c-1.14.2-2.28.53-3.42.55-15.08.37-30.16.67-45.23 1.07-1.23.03-2.45.58-3.77 1.26-.87.45-1.65.54-3.13.28a943 943 0 0 0-35.43-.5c-.86 0-1.7 1.07-2.56 1.64-.77.07-1.54.14-3.01-.14-18.04-.42-35.39-.59-52.73-.47-2.4.02-4.8 1.45-7.2 2.24-.18.11-.37.23-1.26.41l-5.77.42a34 34 0 0 1-5.03-.62c-5.85-.02-10.97.3-16.09.63-5.7.23-11.4.46-17.85.36a48 48 0 0 0-6.11-.64c5.33-.65 10.64-1.55 15.98-1.9 8.56-.55 17.13-.73 25.7-1.1.63-.02 1.24-.3 2.47-1.86-1.52-.7-2.97-1.76-4.56-2.02-5.1-.84-10.25-1.39-15.49-2.4.97-.43 2.05-.52 3.82-.3a65 65 0 0 0 8.08-.23"/><path fill="#d86f10" d="M423.56 241c.92.43 1.4.8 2.5 1.44 2.38.37 4.16.46 5.94.55h8.32l.15 1.5c-4.03.5-8.06 1.32-12.11 1.44-7.49.24-14.99-.04-22.47.12-3.09.07-6.59-1.3-8.95 2.47-.52.83-3.19.11-4.74.55-1.48.42-2.78 1.41-4.57 2.57a5.7 5.7 0 0 1-3.63-.04 77 77 0 0 0-.97-4.56c-1.46 2.3-2.25 3.55-3.42 4.83-1.13.06-1.88.1-2.84.22-.45.27-.64.5-1.23.8-8.58.07-16.7.04-24.81.22-1.63.04-3.23.9-4.85 1.38-.43.12-.86.24-1.82.35a2.5 2.5 0 0 1-1.3-.45c-3.13-.6-5.95-1-9.12-1.4-1.44.3-2.51.6-4.06.92-8.83.08-17.18.14-25.8-.11-2.77-.13-5.28.05-8.16.22-1.12 0-1.86 0-2.9-.3-7.1-.77-13.9-1.24-21.17-1.72h-14.63c.94-1.29 1.08-1.69 1.3-1.75 8.71-2.42 18.44 1.76 26.68-4.13.66-.47 2.21.49 3.34.44q7.95-.37 15.89-1c.34-.03.6-1.05.9-1.61 1.06-.02 2.1-.03 3.54-.03.84.97 1.25 2.75 1.75 2.77 3.7.2 7.45.24 11.16-.07 3.74-.3 7.43-1.43 11.16-1.54 7.9-.25 15.8-.02 23.7-.14 1.5-.02 3-.76 5.04-1.57 4.56-.42 8.56-.43 13.03-.42 7.62.04 14.76.06 21.9.06 6.05 0 12.11.06 18.16-.1.87-.02 1.7-1.1 2.55-1.7 2.03-.09 4.07-.17 6.54-.2"/><path fill="#ca894c" d="M304.04 254.1c8.36-.05 16.71-.1 25.54.06.46.21.4.7.4.7s-.25.38-.79.49c-3.08.22-5.63.34-8.18.46-4.37.06-8.73.11-13.55.27-15.85.38-31.24.64-46.96.43 3.6-1.1 7.55-1.73 11.8-2.07 7.1.05 13.91-.18 20.71-.41.75 0 1.5-.02 2.87.27 3.15.13 5.65-.04 8.16-.2m217.28-4.51c2.19-.99 4.58-2.42 6.98-2.44 17.34-.12 34.7.05 52.35.4-.79.5-1.89.71-3.79.97-12.54.4-24.29.74-36.03 1.1-5.65.09-11.3.18-17.63.31-.86.1-1.02.15-1.18.2-.16-.11-.32-.23-.7-.54M376.97 252c.76-.04 1.5-.07 3.04-.09l4 .05c1.07.03 2.13.07 3.6.1l3.34-.01 2.06-.03H395c1.1 0 1.55-.02 2-.03 3.78.09 7.56.17 11.34.74-5.12.76-10.23 1.02-15.34 1.3-1.07-.05-2.14-.08-4-.12-1.86.1-2.93.2-4 .29-.76-.05-1.51-.1-3.08-.14-4.24.18-7.67.35-11.1.53-8.01.08-16.02.16-24.49.07 1.17-.65 2.77-1.51 4.4-1.55 8.11-.18 16.23-.15 25.03-.28.95-.28 1.13-.53 1.21-.83m236.35-4c-7.06.04-13.74.03-20.87.14-2.52.08-4.6.04-7.33.06-.67.06-1.13.22-1.13.22s-.02-.33.02-.5c.88-.73 1.73-1.8 2.59-1.8 11.57-.03 23.15.08 35.04.43a69 69 0 0 1-8.32 1.46m-198.95 5.14c-1.12 0-1.88-.1-3-.34a960 960 0 0 1 33.32-1.4c-8.7.65-17.74 1.08-27.24 1.64-1.2.08-1.96.04-3.08.1m54.15-3.18c2.26.08 4.05.18 6.12.53-1.76.52-3.8.8-6.62 1.09-1.52.1-2.27.17-3.02.25-1.4-.03-2.79-.05-4.96-.07-1.54.1-2.29.18-3.04.26-2.06-.02-4.12-.03-6.84-.02-.66.04-1.12.21-1.12.21-.2-.1-.39-.2-.85-.48 1.16-.7 2.57-1.58 4-1.63 5.29-.2 10.58-.1 16.33-.14m24.79.44c4.76-.5 9.88-.83 15.31-.9q-7.15.8-15.3.9M334 253a68 68 0 0 1 8.44 1.55c-.46.49-.9.61-1.36.74-2.09-.1-4.18-.18-6.72-.69-.41-.81-.39-1.2-.37-1.6"/><path fill="#d4721a" d="M333.64 253c.33.4.3.79.3 1.48-1.06.36-2.12.43-3.57.44-.39-.07-.33-.55-.32-.8 1.08-.53 2.15-.83 3.59-1.12"/><path fill="#1d2839" d="M265.06 201.27c3.33 5.16 6.61 10.73 9.96 16.27 1.05 1.75 1.64 3.13-1.68 3.15-6.29-.15-12.24-.42-18.7-1.2a297 297 0 0 1-6.38-11.6c-.2-.54-.38-1.1-.85-2.1l-1.83-2.95a841 841 0 0 0-5.1-10.07c-.94-1.79-1.54-3.03-2.14-4.27 1.39 1.5 3.08 2.81 4.1 4.52a772 772 0 0 1 12.32 21.31c1.68 3.01 4 4 7.35 3.73 3.3-.27 6.62-.06 10.14-.06-2.5-5.66-4.86-11-7.19-16.73"/><path fill="#1d2839" d="M233.57 187c-3.07 3.46-6.16 7.12-6.08 12.79-2.58-4.64.1-10.59 6.08-12.8m27.33 7.13c.27-.2.63-.1.81-.05a71 71 0 0 1 3.35 6.51c-4.38.14-3.85-3.44-4.17-6.46m-22.41-6.03c-.6-.28-1.04-.89-1.53-1.77.53.3 1.1.87 1.53 1.77m-11.52 12.97c.22.1.25.28.18.7-.28.05-.46-.12-.6-.33-.02-.03.15-.2.42-.37"/><path fill="#222e3f" d="M628.1 44.68c-.37.27-.64.12-.98-.34.26-.13.64-.05.98.34"/><path fill="#c97929" d="M465.43 126.9c-1.52-.34-2.6-.87-3.67-.87q-29.04-.05-58.07.03c-.77 0-1.55.37-2.52.87-16.22.51-32.23.71-48.87.67-1.18-.13-1.74 0-2.3.11-1.4.05-2.8.1-4.94-.16-8.53-.4-16.3-.5-23.98-.99 1.6-.78 3.1-1.47 4.61-1.5 7.45-.12 14.91.17 22.35-.15 4.34-.18 8.64-1.25 13.4-1.93 3.2-.39 5.98-.77 9.15-1.24 7.73-.42 15.07-.76 22.41-1.1 4.38-.05 8.77-.1 13.96-.14 2.73.02 4.64.05 7.03.22 20.85.14 41.22.14 63.16.14l-4.14 5.87c-2.38.08-4.76.16-7.58.18"/><path fill="#c78d51" d="M473.38 126.83c.87-1.86 2.1-3.61 3.77-5.97-21.94 0-42.3 0-62.75-.31 6.18-.6 12.43-.9 18.67-1.18l15.95-.28 12.86-.43c.78.05 1.56.1 3.11.14 2.57-.14 4.36-.28 6.15-.43.42.04.84.08 1.57.05 2.07.06 3.83.19 6.17.36-1.53 3.33.1 7.74-5.5 8.05m-106.8-5.55c1.3.01 2.18.1 3.34.37-2.5.56-5.27.94-8.77 1.32a6 6 0 0 1-2.1-.78c.48-.23.95-.45 1.68-.76 1.98-.08 3.7-.08 5.85-.15"/><path fill="#bb6b21" d="M358.62 122.13c.9.32 1.36.58 2.1.85-4.04.68-8.34 1.75-12.68 1.93-7.44.32-14.9.03-22.35.15-1.5.03-3 .72-4.63 1.72-.12.62-.11 1.06-.11 1.06-.74.05-1.47.1-2.8-.16-1.44-.43-2.3-.55-3.15-.68h-25.33l-.03-1.54c3.29-.34 6.58-.68 10.13-1.36.48-.5.73-.62 1.52-.76l3.7-.37c2.4.03 4.8.05 8.05.05 3.23 0 5.6.04 7.97.07 3.78-.01 7.56-.02 11.77-.14 6.74-.36 13.05-.61 19.79-1 2.16-.05 3.9.03 6.05.17"/><path fill="#dbac7b" d="M237.4 128.86c.81-.36 2.1-.79 3.37-.8 23.79-.08 47.58-.12 71.84-.08-.65.32-1.76.73-2.88.74-23.96.11-47.92.18-72.33.14"/><path fill="#c78d51" d="M321.4 127.97c-.45-.13-.46-.57-.44-.8 7.8-.12 15.57-.03 23.68.31-7.37.36-15.07.49-23.23.49m-6.41-.73a6 6 0 0 1 2.79.38c-.54.33-1.3.43-2.43.42-.37-.1-.37-.56-.37-.8m35.34.59c.23-.24.8-.36 1.5-.3-.29.27-.73.34-1.5.3"/><path fill="#1a2a41" d="M747.2 215.08c-.05.43-.1.86-.6 1.66-2.37.9-4.25 1.51-6.18 1.95-4.52 1.02-6.34-.4-6.03-4.97.2-3.1.93-6.16 1.28-9.25.82-7.18 2.12-14.37 2.05-21.55-.03-2.84-2.6-6.56-5.1-8.19-2.15-1.39-6.24-2.59-8.81 1.36-.38.15-.55.14-.72.12-4.63-.97-9.59 4.46-10.16 10.36-1.03 10.63-2.47 21.22-3.7 31.5-1.09.34-1.42.56-1.7.5-9.97-1.81-9.65-1.77-7.95-12.13a206 206 0 0 0 2.26-23.65c.28-5.68-3.26-8.64-9.1-8.82-3.15-.1-6.29-.46-10.22-.76 4.48-8.48 11.76-7.6 18.71-9.14a5 5 0 0 1 2.96.17c.83.39 1.46.52 2.28.64.2-.01.53.2.54.57 1.49 1.1 2.97 1.8 4.5 2.54l.12.09.8 4.46c1.52-.3 3.39-.15 4.5-1 6-4.59 12.41-7.71 20.2-6.5 3.1.47 6.13 1.27 9.85 1.96.97.21 1.1.5 1.06 1.31l-.03 2.95c0 9.07.1 18.14-.03 27.2-.08 5.55-.51 11.08-.78 16.62"/><path fill="#1d2c42" d="m665.27 171.99 1.06.93c2.18-7.25 2.18-7.25 11.09-6.74 1.04 2.1 1.6 4.45 3.06 5.9 2.05 2.05 2.7 3.96 1.59 7.09-.1.82-.3.97-1 .98-1.32 1.15-2.89 2.24-3.05 3.5-1.14 8.83-2 17.7-2.94 26.85-.06.7-.12 1.1-.44 1.75-2.55 6.9-4.13 7.97-10.58 6.63-1-.21-2.56-1.84-2.47-2.66.92-8.44 2.36-16.82 3.16-25.27.5-5.28.17-10.64.15-16.34.08-1.13.23-1.88.37-2.62"/><path fill="#cd7723" d="M416.56 241.1c-.39.7-1.22 1.79-2.09 1.81-6.05.16-12.1.1-18.16.1-7.14 0-14.28-.02-21.58-.31 3.6-.57 7.37-.86 11.14-1.15 2.1-.1 4.21-.2 7.03-.02 2.15.11 3.6-.04 5.04-.2 6.05-.1 12.1-.21 18.62-.22"/><path fill="#ca894c" d="M385.43 241.4c-3.33.44-7.1.73-11.17 1.27-4.32.27-8.32.28-12.79.3a280 280 0 0 1-15.16-.5c12.68-.58 25.69-.9 39.12-1.08m12.12-.18c-1.05.28-2.5.43-4.2.4 1.1-.3 2.45-.42 4.2-.4"/><path fill="#e6e6ea" d="M627.41 68.38a8 8 0 0 1 .34-3.13c.25.5.2 1.24.19 2.36.02.37-.33.66-.53.77"/><path fill="#c78d51" d="M284.42 124.05c-.39-.03-.14-.38 0-.53a7 7 0 0 1 2.47.28c-.54.19-1.31.23-2.47.25"/><path fill="#d26a0e" d="M271.99 254.16c-3.94.62-7.88 1.25-11.95 2.21a46 46 0 0 1-7.64.54c-7.47-.37-14.5-.75-21.54-.97-3.97-.13-7.95.01-12.76-.11-11.78-2.56-22.76-.86-33.7-.35-5.16.23-10.26 1.62-15.39 2.49-6.38.32-12.77.64-19.58.59a423 423 0 0 1-7.56-10.6c2.71 0 4.8.24 6.8-.08 1.5-.25 2.89-1.22 4.36-1.91.04-.05.13-.14.54-.12a175 175 0 0 0 7.5-1.58c1.07-.06 2.14-.12 3.6-.11 6.92.4 13.43.8 19.95 1.02 2.98.1 5.97-.21 8.96-.22 14.64-.05 29.29-.03 43.93-.12 1.75 0 3.5-.51 5.4-1.14 7.84-.45 15.52-.55 23.67-.6 3.04.34 5.61.81 8.19.83 9.77.08 19.55 0 29.8 0 .17.58-.1 1.6-.44 1.63q-7.94.63-15.9 1c-1.12.05-2.67-.91-3.33-.44-8.24 5.89-17.97 1.71-26.68 4.13-.22.06-.36.46-1.3 1.75 5.22 0 9.69 0 14.62.36.46.84.45 1.32.45 1.8"/><path fill="#d4721a" d="M152.99 246.01c-1.43.65-2.81 1.62-4.31 1.87-2 .32-4.1.08-6.81.08 2.73 3.91 4.93 7.06 7.14 10.59-4.92.42-9.85.43-14.78.51-3.54.06-4.72-1.5-3.84-4.95.88-3.48.21-7.94 6.56-8.15 5.92.03 10.98.04 16.04.05m16.49 11.97c4.66-.88 9.76-2.27 14.92-2.5 10.94-.5 21.92-2.2 33.23.36a5.4 5.4 0 0 1-2.82 1.1c-14.95.4-29.91.72-45.33 1.04"/><path fill="#d26a0e" d="M153.03 245.97c-5.1.03-10.16.02-15.7 0-.43-.34-.36-.66-.25-1.22 4.98-.34 9.95-.44 15.39-.21.55.64.62.97.69 1.3z"/><path fill="#1d2839" d="M635.02 140.04c-.52.12-1.04.24-2.09.34-1.78-.24-3.04-.45-4.3-.66-.54-.42-1.08-.84-1.95-1.37-3.75-4.1-5.4-8.6-4.09-14.57a87 87 0 0 1 4.1-7.9c2.32-1.63 4.18-3.4 6.38-4.4 9.96-4.5 19.02.31 20.11 10.52-.44 2.05-.88 4.1-1.36 6.54a55 55 0 0 1-7.47 7.99c0-2.08.34-3.8 1.06-5.52 5.5-2.1 5.7-6.49 5.43-11.36-2.45-6.04-5.04-7.72-11.06-7.66-6.56.06-10.63 3.6-13.85 8.99-4.26 7.12-2.12 14.13 5.68 17.43-.02.07-.24-.05.16-.15.67-.16.94-.21 1.48-.14a20 20 0 0 1 1.77 1.92"/><path fill="#16253b" d="M635.41 140.11a9 9 0 0 1-2.15-2.37c-1-1.85-1.48-3.45-2.52-4.48-4.3-4.23-5.27-7.45-1.5-12.2a17.2 17.2 0 0 1 9.69-5.74c3.36-.6 7.18 1.22 7.78 5.57-.8-.35-1.34-.6-2.16-1.03-4.54-3.4-8.37-3.46-11.87-.19-2.94 2.75-4.35 6.35-2.32 9.9 2.08 3.64 5.77 3.9 9.66 2.36 1.76-.13 3.36-.54 4.97-.94l.04.04c-.34 1.7-.68 3.42-1.02 5.5-.01.38-.37.57-.9.57a7 7 0 0 0-2.03 1.1c-.57.47-1.15.93-1.9 1.63a15 15 0 0 1-3.77.28"/><path fill="#1d2839" d="M641.43 138.2q.22-.54 1.47-1.1-.23.53-1.47 1.1m67.05 26.64c.96.9 1.83 1.78 2.84 2.89a12 12 0 0 1-4.1-2.33c.22-.44.66-.42.66-.42l.35-.27s.16.1.25.13"/><path fill="#162236" d="M704.19 164.24c-.2-.26-.06-.54-.04-.7a6 6 0 0 1 1.27.04c.52.52.69.91.85 1.3a8 8 0 0 1-2.08-.64"/><path fill="#ca894c" d="M153.57 245.85c-.48-.34-.55-.67-.65-1.24a48 48 0 0 1 7.7-.47c-1.92.67-4.28 1.2-7.05 1.71"/><path fill="#1d2839" d="m735.03 181-.12-1.08a4 4 0 0 0-.77-1.43c-3.09-.84-6.17-1.69-9.7-2.54 1.94-3.8 6.03-2.61 8.17-1.22 2.51 1.63 5.08 5.35 5.1 8.19.08 7.18-1.22 14.37-2.04 21.55-.35 3.1-1.07 6.15-1.28 9.25-.3 4.57 1.5 5.99 6.03 4.97 1.93-.44 3.81-1.05 6.1-1.64.38.98.38 2-.18 3.22-2.15.31-3.74.42-5.34.54a37 37 0 0 0-4.02-.13 18 18 0 0 1-4.13.19c-.43-.44-.7-.66-.98-1.3.28-2.75.54-5.04.8-7.34.08-.86.17-1.72.26-3.28.18-1.43.33-2.17.64-3.22.17-1.45.18-2.59.27-4.15.69-5.81 1.3-11.2 2-16.94-.2-1.45-.51-2.55-.81-3.65"/><path fill="#222e3f" d="M659.89 213.37a2451 2451 0 0 1 4.93-38.02c.1 4.96.43 10.32-.07 15.6-.8 8.45-2.24 16.83-3.16 25.27-.09.82 1.46 2.45 2.47 2.66 6.45 1.34 8.03.27 10.65-6.28a67 67 0 0 1-.7 8.12l-9.9-.17c-2.16-.2-3.54-.4-4.93-.6.26-2.05.5-4.1.71-6.58m21.17-33.22c-.17 1.37-.75 2.73-1.3 4.47-.55 3.45-1.12 6.54-1.74 10.24-.02.8.02.96.06 1.13-.12.45-.23.89-.47 1.99-.22 2.1-.32 3.56-.42 5.02l-.73 4.26c-.53 1.4-.95 2.17-1.38 2.93.95-8.85 1.8-17.71 2.94-26.54.16-1.26 1.73-2.35 3.04-3.5"/><path fill="#c49a6c" d="M808.95 237.46c-1.32.6-2.81 1.4-4.3 1.4-6.4-.02-12.78-.29-19.45-.8 2.14-.54 4.55-.74 7.78-.95 1.88-.06 2.95-.12 4.02-.18 2.37.05 4.75.1 7.93.15 1.56-.05 2.32-.1 3.07-.16.25.15.52.28.95.54m-55.47.57c1.92-.23 4.3-.43 7.08-.7 2.58.04 4.75.13 7.27.39-4.39.23-9.13.29-14.35.31"/><path fill="#ca894c" d="M816.5 237.53c-.54 3.96-2.38 3.22-4.57.55 1.34-.47 2.74-.52 4.56-.55"/><path fill="#c49a6c" d="M673.13 238.88c2.35-.3 5.18-.53 8.44-.84.43-.1.63.31.76.5-2.81.26-5.76.33-9.2.34m16.63-.83c.25-.13.44.28.57.46-.18.23-.5.28-1.3.28-.16-.23.16-.42.73-.74m-63.19.32c3.22.05 5.98.15 9.09.41.15.24-.04.3-.52.49-8.47.07-16.66.02-25.02-.31 1.5-.4 3.17-.52 4.85-.63 3.71.03 7.42.06 11.6.04m65.48.44c.3-.18 1.07-.29 2.11-.24-.37.22-1 .27-2.11.24m59.11-.57c.29-.27.73-.32 1.5-.3-.23.21-.8.36-1.5.3m-94.01.65c0-.12.39-.21.94-.18-.07.15-.32.18-.94.18"/><path fill="#1b2a41" d="M872.47 237.45c.05-.04-.06.03 0 0"/><path fill="#1d2839" d="M748.04 168.31a25 25 0 0 1 3.29 5.04c.46 3.02.73 5.34 1 7.65-.09.45-.17.9-.28 1.92.02.74.07.9.11 1.07-.44 3.39-.88 6.79-1.25 10.6-.96 7-2 13.58-3.37 20.33-.07-5.38.36-10.91.44-16.45.13-9.07.03-18.14.03-27.21 0-.84 0-1.67.03-2.95"/><path fill="#172232" d="M636.4 75.1c.12 2.18-.1 4.45-.36 6.99 5.08 1.42 9.96 2.78 15.01 4.48-4.64-.37-9.74-.34-14.2-2.02-5.27-1.99-1.96-6.06-.45-9.45"/><path fill="#edeff0" d="M623.82 113.85c.86.3 1.45.75 2.3 1.72a46 46 0 0 1-3.54 7.8c-.8-.24-1.38-.77-2.36-1.37a45 45 0 0 1 3.6-8.15"/><path fill="#172232" d="M652.27 87.36c3.22.18 6.68.63 10.47 1.3q-4.82-.29-10.47-1.3"/><path fill="#edeff0" d="M654.12 111.6a10 10 0 0 1-3.09-2.45 10 10 0 0 1 3.09 2.44"/><path fill="#172232" d="M636.72 70.16c.25.3.28.73.27 1.5-.2-.23-.34-.8-.27-1.5"/><path fill="#e6e6ea" d="M624.47 82.32q-.28-.64.14-2.06.29.64-.14 2.06"/><path fill="#edeff0" d="M643.76 105.99c-.04.2-.33.28-.68.19.1-.22.26-.26.68-.2"/><path fill="#e6e6ea" d="M623.74 85.5q-.32-.27 0-1.27.32.27 0 1.27"/><path fill="#edeff0" d="M656.01 115.74c-.2 0-.35-.26-.35-.62.24.05.33.2.35.62"/><path fill="#e6e6ea" d="M617.31 110c-.09-.3.13-.56.6-.9.08.24-.1.58-.6.9"/><path fill="#0d1b2f" d="M363.65 188.27c.3.82.34 1.9.52 3.35.1.84.08 1.29-.05 2.06-.32-1.5-.52-3.33-.47-5.4m-1 8.96c.28.84.31 1.9.33 3.35-.2-.78-.39-1.95-.33-3.35m.34 5.8c.23.1.29.3.17.72-.33.04-.5-.15-.64-.36-.01-.03.18-.18.47-.36m1.78-22.94c.2.08.24.24.2.64-.23.08-.4-.07-.53-.26-.03-.04.1-.2.33-.38"/><path fill="#13233a" d="M507.21 116.27c-1.26.84-2.7 1.52-3.8 2.56-1.27 1.2-2.14 3.8-3.37 3.92-3.85.39-7.8 0-11.68-.44-.32-.04-.65-2.7-.42-4.04.17-.97 1.27-1.77 1.99-3 .47-3.51.9-6.67 5.76-5.22.46.63.57.87.7 1.12q.3-.63.62-1.25a5.3 5.3 0 0 1 2.68.26c1.53.95 2.82 1.2 3.68 1.93 1.43 1.22 2.59 2.75 3.86 4.15z"/><path fill="#15263d" d="m536.03 126.98-3.42 3.2c2.57-10.54-1.32-15.26-10.97-15.6 1-1.66 1.6-2.7 2.3-4.07.81-.42 1.57-.5 2.76-.13 1.72.84 3 1.24 4.48 1.9 6.09 4.54 7.12 7.74 4.85 14.7"/><path fill="#0d1b2f" d="M507.52 116.08c-1.56-1.22-2.72-2.75-4.15-3.97-.86-.74-2.15-.98-3.31-1.81 4.02-.49 8.12-.6 12.59-.79a63 63 0 0 1-5.13 6.57"/><path fill="#1d2839" d="M536.47 127.05c1.83-7.03.8-10.23-5.28-15.03-.19-.72-.19-.9-.19-1.08 7.15 2.48 9.39 7.36 7 16.06-.5.24-.8.18-1.53.05"/><path fill="#0d1b2f" d="M619.98 81.6c-2.57-6.8 1.44-12.77 3.82-18.66.3.96.3 1.5.3 2.03-1.32 5.42-2.65 10.83-4.12 16.63"/><path fill="#e6e6ea" d="M509.98 135.41a17 17 0 0 1 3.42 3.06 17 17 0 0 1-3.42-3.06"/><path fill="#162236" d="M530.72 110.73c.28.4.28.57.27 1.02a10 10 0 0 1-3.92-1.27 8.4 8.4 0 0 1 3.65.25"/><path fill="#1d2839" d="M520.65 110.98q-1.1 1-3.31 2.01 1.11-.99 3.3-2.01"/><path fill="#e6e6ea" d="M624.36 64.74c-.26-.3-.26-.84-.32-1.57-.05-.2.32-.48.53-.58.16.58.1 1.25-.2 2.15"/><path fill="#0d1b2f" d="M496.75 109.82c.05.51-.16.93-.37 1.35a5 5 0 0 1-.37-.99c.15-.32.32-.39.74-.36"/><path fill="#e6e6ea" d="M495.6 105.49q.15-.37 1.12-.32-.17.36-1.13.32m28.57 34.41c-.05-.22.13-.52.58-.78.12.33-.09.55-.58.79"/><path fill="#1b2b41" d="M528.59 217.35c-3.94.58-7.71.95-11.4 1.72-10.23 2.14-19.14-.07-25.64-8.47-2.27-2.94-4.35-7.04-4.29-10.56.13-7.33 1.76-14.63 2.79-22.32.75-1.5 1.48-2.63 2.5-3.91 1.14 2.15 1.6 4.73 2.96 6.7.9 1.29 3.07 1.7 5.1 2.8.45.52.47.73.54 1.1l.1.5c-.17 2.83-.33 5.66-.37 9.04.12.56.1 1.06-.28 1.14-2.92 5.37-1.99 8.54 3.6 13.3 2.8 1.42 5.57 3.66 8.06 3.37 4.74-.56 9.27-2.77 13.99-3.84 1.78-.4 3.84.42 5.78.7-.33 1.6-.6 3.22-1 4.81-.24.93-.68 1.81-1.04 2.71-.4.4-.8.8-1.4 1.21"/><path fill="#19283e" d="M530.32 216.03c.03-.79.47-1.67.7-2.6.41-1.59.68-3.21 1.01-4.82-1.94-.27-4-1.1-5.78-.69-4.72 1.07-9.25 3.28-14 3.84-2.48.29-5.25-1.95-7.68-3.42.47-.4.73-.44.98-.47 8.35 3.38 15.83 2.19 22.23-4.67l10.49 7.2c-2.9 2.1-5.26 3.81-7.95 5.63"/><path fill="#172232" d="M540.64 192.81c-.64-.27-1.42-.88-1.51-1.57a526 526 0 0 1-1.96-18.09c4.45 5.57 4.63 12.32 3.47 19.66"/><path fill="#222e3f" d="M505.2 207.7c.1.2-.16.24-.8.33-5.79-4.4-6.72-7.57-3.58-12.84.88.22 1.08.48 1.18.8-3.28 4.9.7 8 3.2 11.71"/><path fill="#172232" d="M523.46 196.08c1.16-.76 2.78-1.96 4.4-1.96 2.98-.01 5.97.68 9.05 1.47-4.27.46-8.64.52-13.45.5m-21.01-.02c-.55-.4-.75-.66-1.25-.96-.22-.1-.2-.6-.2-.85 3.48.21 6.95.67 10.7 1.42-2.74.34-5.77.4-9.25.39"/><path fill="#222e3f" d="M539.3 196c-.1-.29.12-.55.56-.91.07.24-.08.58-.55.9"/><path fill="#0d1b2f" d="M388.97 200.44c.3-2.19.63-3.92.9-6.05.03-1.6.14-2.83.5-4.3.7 1.39 1.82 3.2 1.48 4.67-2.22 9.65-1.49 18.3 7.04 25.2-6.71-2.14-9.85-6.54-9.94-13.64-.02-1.8.02-3.62.02-5.88m1.95-24.82c-2.07.38-4.22.38-7.45.38.58-3.69 1.15-7.27 2.12-10.9.4 2.6.4 5.23.4 7.77 1.8.88 3.33 1.63 4.93 2.75"/><path fill="#354154" d="m409.14 158.96.31 4.45c2.39.11 4.61.22 7.17.69.34.36.25.81.25.81l-1.88.01c-2.2.35-3.69.7-5.18 1.04-2.97.23-2.49-1.48-1.81-3.97.4-1.46.77-2.25 1.14-3.03"/><path fill="#0d1b2f" d="M391.06 165c3.78-1.94 2.61-5.58 3.28-8.9 3.35 5.26 1.94 9.26-3.28 8.9m18.32 11.39a1.7 1.7 0 0 1-1.14-.16c1.3-.83 2.8-1.87 4.42-2.15 2.06-.36 4.23-.09 6.8-.08a66 66 0 0 1-6.06 2.3c-1.48.06-2.56 0-4.02.09m-.14-17.85c-.47 1.2-.84 1.99-1.22 3.12.18-2.96.38-6.27.9-9.58.35 2 .39 4.02.32 6.46m-17.73 26.36c-.1-2.3.17-4.7.48-7.49 2.56 2.26 1.11 4.83-.48 7.5m15.1-7.85c.07 1.36-.2 2.77-.59 4.55.01-1.25.13-2.87.6-4.55m1.35-29.59a10 10 0 0 1 2.17 3.14 10 10 0 0 1-2.17-3.14m13.8 18.58c-.33 1.65-.66 3.3-1.33 5.1-.38-1.31-.41-2.78-.42-4.74.04-.49.12-.58.39-.54zm-11.55-.07q1.63-.55 4.48-1.05-1.62.54-4.48 1.05"/><path fill="#0d1b2f" d="M417.09 165.18c-.22-.27-.13-.72-.11-.94.46-.27.91-.31 1.8-.03.75.75 1.05 1.18 1.36 1.62l-.12.14c-.93-.14-1.82-.33-2.93-.79m-11.35 19.97c.35.3.47.75.45 1.53-.31-.24-.5-.8-.45-1.53m-.78 8.91c.23.08.29.25.23.67-.3.07-.49-.1-.65-.29-.01-.02.15-.2.42-.38"/><path fill="#edeff0" d="M501.59 185.08c-.35-.18-.4-.5-.13-.8 1.43-2.25 2.57-4.2 3.72-6.15 0 0-.1-.02.18-.07.47-.36.66-.68.85-.99.3.01.56-.1 1.2-.65 6.33-3.51 12.01-3.62 17.38.82 0 0 .1-.14.1.24.63 1.78 1.27 3.19 1.9 4.6 0 .44-.02.87 0 1.91-.04 1.02-.11 1.43-.53 1.84l-18.25.24c-2.03-.27-4.05-.55-6.42-1"/><path fill="#1d2839" d="M524.85 176.88c-5.43-4.08-11.1-3.97-17.36-.65-.1-4.31 3.62-3.99 6.27-4.09 4.09-.15 8.2.58 12.33.93-.44 1.3-.81 2.38-1.24 3.81"/><path fill="#0d1b2f" d="M508.1 186.46c5.87-.47 11.84-.55 18.5-.58l1.41.11c-.3.56-.62 1.6-.91 1.6-6.3-.18-12.6-.47-19-1.13"/><path fill="#1d2839" d="M504.8 178.1a28 28 0 0 1-3.38 6.01c-.34-.07-.36-.28-.41-.79a26 26 0 0 1 3.79-5.22m22.3 3.76a18 18 0 0 1-2.29-4.34c3.15-.23 3.75 1.42 2.29 4.34m1.14 3.96c-.46.16-.7.14-1.28.07-.28-.47-.21-.88-.05-1.6.58.26 1.07.8 1.33 1.53m-22.29-8.65q.1.32-.58.93-.11-.31.58-.93"/><path fill="#1c2b41" d="M464.33 185.36c-1.72 1.05-3.45 2.08-5.51 3.31 1.51 3.19 2.66 6.1 4.21 8.76 3.37 5.78 7.01 11.4 10.36 17.2.36.61-.16 2.3-.8 2.84-1.95 1.58-7.31-.4-9.35-1.7-7.51-4.76-8.98-13.47-13.78-19.94-2.74-3.69-1.49-7.37-.5-11.51-.01-.4.01-.35.37-.35 4.54-.74 6.97-2.8 5.92-7.45h.03c3.63-.85 6.08-2.88 6.77-7.08 1.92-1.25 3.82-2.14 5.7-3.04 3.85-1.82 7.62-.13 9.16 4.4-.27.94-.7 1.53-1.78 2.2-2.96.62-4.73 1.51-3.73 4.4-.1-.15-.22-.28-.54-.29-.54.88-.86 1.62-1.18 2.36 0 0-.11.05-.45.04-.6.53-.87 1.08-1.14 1.62 0 0-.05-.1-.37-.06-1.34 1.45-2.35 2.86-3.37 4.28z"/><path fill="#1d2839" d="M471.68 177.23c-1.28-2.72.49-3.61 3.18-4.13-.7 1.32-1.8 2.65-3.18 4.13m-7.04 7.98c.73-1.28 1.74-2.7 3.13-4.12a21 21 0 0 1-3.13 4.12m5.28-5.89c.08-.6.4-1.33 1.11-2-.03.66-.45 1.26-1.11 2m-1.58 1.72c.02-.45.29-1 .89-1.47 0 .5-.31.94-.89 1.47"/><path fill="#1c2b41" d="M441.72 206.72c.33.74.36 1.19.26 1.96-1.5 3.02-2.88 5.72-4.61 9.12.19-.03-.6.14-1.4.18-8.11.37-8.84-.9-7.51-9.16 1.27-7.94 1.8-16 2.51-24.02.37-4.06.43-8.14.35-12.5a7 7 0 0 1-.16-2.95c1.03-2.65 2.35-4.88 2.75-7.26.94-5.5 1.35-11.08 2.21-16.6.15-.92 1.46-2.25 2.34-2.34 2.91-.3 5.87-.11 9.16-.11-1.17 10.3-2.32 20.03-3.35 29.78-.11 1.02.5 2.11 1.14 3.43.35.87.31 1.5-.12 2.5-.35 1.34-.3 2.3-.25 3.27.03.45.06.9-.04 1.66-.9 2.6-2.07 4.84-2.36 7.18-.64 5.16-.84 10.38-.92 15.86"/><path fill="#354154" d="M420.4 165.87c-.57-.48-.87-.9-1.3-1.58.92.17 1.95.59 2.82 1.38-.52.33-.88.29-1.51.2"/><path fill="#1b2a41" d="M510.08 130.43c-.12-4.5-.42-8.68 4.87-11.78-2.5 7.6-2.43 13.63 5.98 16.03-.56 3.46-2.54 4.24-4.86 2.5-2.28-1.72-3.98-4.2-5.99-6.75m19.15 5.97a81 81 0 0 1-3.52-1.62l.9-1.31c.85.71 1.7 1.42 2.66 2.5.1.35-.02.37-.04.43"/><path fill="#15263d" d="M532.28 133.39q-.9-.56-1.73-1.26c-.02-.02.27-.41.41-.63.4.39.8.77 1.35 1.46.13.3 0 .37-.03.43"/><path fill="#1d2839" d="M536.36 130.1q.33.22-.24.6-.15-.22.24-.6M455 176.69c1.3 4.48-1.13 6.54-5.7 7.27a69 69 0 0 1 5.7-7.27m-9.82 5.08a6 6 0 0 1 .02-2.8 6 6 0 0 1-.02 2.8"/><path fill="#cd7723" d="M432 242.82c-1.78.08-3.56-.01-5.63-.32 1.4-.26 3.1-.3 5.24-.27.42.06.4.41.4.59"/><path fill="#ca894c" d="M468.31 240.66c1.11-.3 2.5-.43 4.27-.4-1.07.28-2.53.44-4.27.4m8.94-.12c.83-.31 1.9-.4 3.36-.38-.79.28-1.96.43-3.36.38"/><path fill="#d86f10" d="M429.08 248.69a3 3 0 0 1-1.33-.22c.1-.1.24-.32.32-.3.4.08.78.23 1 .52m-36.21 3.11c-.3.23-.75.23-1.54.24a2.6 2.6 0 0 1 1.54-.25m3.99-.02c-.3.23-.74.24-1.52.25.23-.17.8-.32 1.52-.25"/><path fill="#ca894c" d="M486.15 240.45c.3-.28.75-.36 1.53-.33-.24.26-.8.4-1.53.33"/><path fill="#d86f10" d="M432.53 248.55c-.05.03.06-.03 0 0"/><path fill="#ca894c" d="M576.64 239.4c-.37.62-1.16 1.5-1.95 1.49-20.35-.02-40.7-.13-61.35-.5 4.37-.5 9.05-.72 14.18-1 3.17-.06 5.87-.04 9.28-.06a7 7 0 0 0 1.22-.18l10.9.07c1.57-.07 2.32-.14 3.08-.21l12.94.1c1.92-.09 2.99-.17 4.05-.25 2.41.12 4.82.24 7.65.53m-72.08.64c-2.04.3-4.5.48-7.25.4 2.08-.33 4.45-.41 7.25-.4"/><path fill="#15263d" d="M478.5 102c1.03.05 1.66.1 2.29.16l-.02.5h-15.05l.05-1.58c4.1.3 8.22.61 12.73.92m5.67.67c1.13-.38 2.46-.54 3.8-.7l.06.91c-1.22 0-2.43 0-3.86-.21"/><path fill="#d4721a" d="M272.3 254.44c-.3-.76-.3-1.24-.3-2.08 6.82.12 13.62.6 20.72 1.37q-9.76.8-20.42.7m31.48-.63q-3.37.7-7.52.5 3.36-.69 7.52-.5m80.22-2.2a10 10 0 0 1-3.62.28c.4-1.3 1.2-2.55 2.65-4.84.51 2.24.74 3.22.97 4.56m-7.23.5q.18.31-.54.7-.14-.32.54-.7"/><path fill="#1b2b41" d="M646.98 121.01a6.84 6.84 0 0 0-8.05-5.7 17.2 17.2 0 0 0-9.7 5.75c-3.76 4.75-2.78 7.97 1.5 12.2 1.05 1.03 1.52 2.63 2.26 4.36-.28.43-.55.48-1.15.55-.34.01-.2.18-.2.18-7.83-3.24-9.97-10.25-5.71-17.37 3.22-5.39 7.29-8.93 13.85-9 6.02-.05 8.6 1.63 10.78 7.7-1.25 1-2.38 1.64-3.53 2.04z"/><path fill="#16253b" d="M647.05 121.96a59 59 0 0 1 3.65-1.95c.4 4.51.2 8.9-5.3 11-.37.02-.4 0-.25-.36.73-3.13 1.32-5.91 1.9-8.7"/><path fill="#1d2839" d="M640.02 131.93c3.67-2.85 6.33-5.98 4.87-11.45.48-.18 1.02.06 1.82.41.27.12.3.6.32.83a180 180 0 0 1-1.9 8.91 16 16 0 0 1-5.11 1.3"/></svg>